<svg width="57" height="91" fill="none" xmlns="http://www.w3.org/2000/svg"><path d="M36.784 1.092c-.555.619-1.87 1.929-2.919 2.936-3.498 3.324-4.21 4.513-4.306 7.23-.072 2.209.434 3.883 1.75 5.788.349.51.639.897.639.849 0-.037-.218-.51-.483-1.043-1.013-2.039-1.315-4.514-.76-6.273.519-1.65 1.279-2.645 3.848-5.035a20.913 20.913 0 001.483-1.516l.52-.607-.073 2.548c-.036 1.686-.12 2.851-.254 3.458-.446 2.05-1.314 3.676-2.894 5.46-1.146 1.297-1.472 2.037-1.158 2.644.048.109.132.57.18 1.007l.073.8-.688.461c-2.328 1.553-3.968 3.798-4.631 6.346-.181.679-.254 1.334-.254 2.39-.012 2.244.399 4.112 1.436 6.466l.543 1.237-.193.97c-.193.984-.254 3.907-.085 4.672.06.303.133.364.434.364h.362l.085-1.565c.313-5.581 2.147-8.82 6.453-11.404 3.317-1.99 4.294-3.106 6.501-7.425 1.737-3.434 2.292-4.343 3.63-6.078l.76-.983-1.073.461c-1.737.752-4.234 1.504-7.25 2.184-2.894.643-4.209 1.019-5.21 1.528-.313.158-.603.292-.64.292-.035 0-.047-.486-.011-1.092.06-1.298.072-1.323 1.942-3.288 1.013-1.056 1.435-1.614 1.785-2.305.772-1.54.832-1.99.748-4.962-.085-2.79.06-4.61.543-6.636.12-.522.217-.959.205-.97-.013-.013-.483.484-1.038 1.091zm5.56 19.023c-2.424 4.489-4.112 6.394-7.984 9.026-.76.522-1.653 1.177-1.978 1.444-1.194.995-2.557 2.96-3.076 4.428-.12.352-.253.595-.29.534-.192-.303-.711-2.778-.832-3.93-.398-3.823 1.013-7.17 3.98-9.415 1.701-1.299 3.245-1.893 6.357-2.463 1.327-.243 3.438-.861 4.342-1.262.205-.085.374-.145.398-.133.012.012-.398.813-.916 1.771zM15.561 4.123c.72 2.733.936 6.317.588 9.67-.432 4.18-.072 5.443 2.494 8.88.695.924 1.474 2.127 1.75 2.661.78 1.592 1.199 3.851 1.211 6.573v1.13l-.288-.122c-.671-.255-1.882-.364-4.927-.425-1.775-.037-3.609-.122-4.077-.17-.455-.061-.85-.085-.863-.073-.024.012.216.206.54.437 1.354.984 2.721 2.26 4.304 4.022.935 1.032 2.05 2.174 2.494 2.526 1.894 1.519 4.064 2.406 6.69 2.722 1.078.133.647-.28-1.175-1.081-2.902-1.288-4.352-2.333-6.582-4.726-.84-.9-1.859-1.86-2.254-2.139l-.72-.486h1.415c3.716 0 5.815.73 7.601 2.637a7.682 7.682 0 011.846 3.353c.096.4.204.753.24.79.12.109.084-1.434-.048-2.285-.276-1.761-1.666-3.705-3.26-4.555l-.696-.365v-2.004c0-3.985-.348-5.358-2.17-8.468-2.41-4.13-2.806-5.758-2.734-11.48.024-1.774.06-3.232.072-3.22 0 .012.252.352.54.753.3.401 1.366 1.604 2.386 2.673 2.47 2.588 3.416 4.082 4.004 6.33.66 2.466.12 5.916-1.439 9.245-.288.62-.503 1.13-.491 1.13.024 0 .227-.292.467-.657 1.883-2.867 2.83-6.098 2.686-9.123-.084-1.652-.408-2.94-1.091-4.374-.696-1.482-1.499-2.527-3.825-4.969a101.374 101.374 0 01-4.364-4.871l-.503-.608.18.669z" fill="#151618"/><path d="M37.18 33.9c-2.753.591-4.626 3.055-4.638 6.074 0 .604-.024.652-.374.773-.628.217-.17.326 1.776.41 2.778.121 4.48-.205 5.93-1.147.399-.253 1.401-1.063 2.235-1.8 1.69-1.473 2.56-2.1 3.986-2.861l.954-.508-1.16-.084c-.628-.036-1.751-.193-2.5-.326-.749-.133-1.933-.35-2.633-.471-1.474-.266-2.537-.29-3.575-.06zm3.986 1.509c.592.145 1.51.302 2.018.338l.942.085-1.317 1.062c-2.005 1.619-3.334 2.355-5.036 2.79-.87.23-4.76.821-4.844.737-.109-.109.242-1.232.664-2.114.737-1.533 2.126-2.632 3.877-3.08.894-.229 2.295-.156 3.697.182zm-30.93 11.702c-.146 6.562.193 8.781 1.825 12.086.859 1.732 2.25 3.756 3.241 4.707.242.232.435.452.435.488 0 .05-3.01.061-6.674.037-3.676-.025-6.808 0-6.965.037-.145.036-.339.207-.411.365-.11.256-.097.342.084.55.218.243.351.243 27.292.243 18.44 0 27.146-.037 27.315-.122.314-.17.314-.805 0-.976-.157-.073-2.648-.121-7.267-.121h-7.026l.738-.89c2.104-2.5 3.47-5.245 4.365-8.745.254-.963.278-1.378.314-6.256l.061-5.207H10.32l-.084 3.804zM5.217 67.275c4.086 1.94 10.384 3.52 16.259 4.083 1.04.108 1.51.192 1.33.24-.254.072-.267.084-.061.096.133.012.955.072 1.813.143 4.425.324 13.902.132 13.636-.287-.037-.06-.024-.084.048-.048.06.036.278.024.472-.036.338-.096.338-.096-.133-.12-.29-.011.326-.155 1.51-.359 3.688-.622 6.722-1.377 9.212-2.287 1.426-.527 4.194-1.724 4.388-1.916.06-.06-9.38-.108-24.781-.096L4.008 66.7l1.21.575zm-.685 18.643h-.157a.328.328 0 00-.103.027l-.068.014a.35.35 0 01-.04.007 8.95 8.95 0 01-.705.04c-.237.01-.474.014-.711.014a3.82 3.82 0 01-.191-.006.555.555 0 01-.39-.123c-.05-.041-.075-.1-.075-.178a.42.42 0 01.04-.178c.028-.06.067-.1.117-.123a4.8 4.8 0 01.24-.014l.355-.013c.127-.01.248-.016.362-.02.114-.01.194-.019.24-.028h.109c.045-.005.09-.011.136-.02a.713.713 0 00.13-.048.229.229 0 00.096-.076.827.827 0 00.082-.362v-.759c0-.013.002-.045.007-.095.009-.05.016-.105.02-.165l.028-.17a.898.898 0 00.013-.103c.023-.474.037-.95.041-1.429.005-.478.007-.954.007-1.428 0-.2-.002-.397-.007-.588a24.122 24.122 0 01-.006-.575v-.334c.004-.16.006-.324.006-.493v-.485c.005-.155.007-.262.007-.321a.686.686 0 00-.095-.226.787.787 0 00-.15-.184 1.206 1.206 0 00-.124-.014 1.933 1.933 0 00-.178-.02 2.388 2.388 0 00-.294-.028.41.41 0 00-.068.014 1.499 1.499 0 00-.11.02.914.914 0 00-.109.02 1.33 1.33 0 01-.24.014h-.526a1.63 1.63 0 01-.177-.006 1.092 1.092 0 01-.226.061.503.503 0 00-.232.089c0 .01-.014.027-.041.055l-.055.054-.15.171c-.06.069-.119.14-.178.212a4.29 4.29 0 01-.164.192.817.817 0 00-.17.26c-.028.068-.06.136-.097.204a.804.804 0 01-.13.171.251.251 0 01-.184.076c-.055 0-.093-.014-.116-.041a.41.41 0 01-.055-.11v-.061a.676.676 0 00-.007-.096v-.329a.594.594 0 00.007-.081v-.048a1.3 1.3 0 00.027-.103 9.44 9.44 0 00.103-.362.557.557 0 01.041-.103.6.6 0 01.014-.088l.027-.144a5.73 5.73 0 00.055-.232c0-.01.007-.034.02-.076a5.387 5.387 0 00.103-.273.305.305 0 00.027-.075c.014-.037.027-.078.041-.123a.95.95 0 01.062-.137.413.413 0 01.095-.103.19.19 0 01.13-.047c.078 0 .14.02.185.061a.97.97 0 01.137.137c.04.05.082.102.123.157a.3.3 0 00.15.103c.096 0 .196-.003.3-.007a7.33 7.33 0 01.315-.007c.196 0 .39.005.581.014.192.009.38.03.568.061l.027.014a.265.265 0 01.055.02l.061.014a.35.35 0 00.041.007h.219c.118 0 .226-.011.321-.034.1-.023.212-.035.335-.035h.185c.036 0 .068.003.095.007.028 0 .046.003.055.007a.9.9 0 01.11.014c.059.004.123.011.19.02l.185.014c.06.005.098.007.117.007a.757.757 0 01.13-.034c.054-.01.125-.016.212-.02.09-.005.205-.008.341-.008.137-.004.308-.007.513-.007l1.237.014a.459.459 0 00.24-.075c.082-.055.164-.116.246-.185l.239-.212a.793.793 0 01.24-.143h.081c.132 0 .226.07.28.212l.028.308c.013.145.027.3.04.464a34.134 34.134 0 00.103.82c.005.023.01.05.014.083a.54.54 0 01.027.123v.102c0 .119-.004.226-.013.322-.01.095-.02.205-.034.328a.16.16 0 01-.069.075.183.183 0 01-.068.014c-.014 0-.028-.007-.041-.021a.084.084 0 01-.034-.02.517.517 0 01-.178-.137 1.367 1.367 0 01-.123-.192 2.937 2.937 0 01-.089-.212 3.481 3.481 0 00-.082-.211.995.995 0 00-.383-.472 3.32 3.32 0 00-.54-.3.891.891 0 00-.349-.076c-.113 0-.237-.01-.369-.027a.682.682 0 01-.102-.028.377.377 0 00-.11-.034h-.656a.665.665 0 00-.157.027c-.068.014-.105.025-.11.035a.524.524 0 01-.047.054.45.45 0 00-.062.096 1.204 1.204 0 00-.061.13.61.61 0 00-.035.082 5.981 5.981 0 00-.027.178.88.88 0 01-.02.177c0 .073.002.199.006.376a22.482 22.482 0 010 1.156c-.004.177-.006.298-.006.362 0 .232-.019.46-.055.683a4.686 4.686 0 00-.048.677c0 .25.007.502.02.752.019.246.028.5.028.759 0 .314-.01.631-.027.95-.014.32-.02.638-.02.957 0 .096.02.171.06.226a.423.423 0 00.171.123.866.866 0 00.226.055c.087.009.169.015.246.02.037.005.094.01.171.014a86.701 86.701 0 00.67.034c.087.032.15.082.191.15a.398.398 0 01.069.226.33.33 0 01-.09.246 1.51 1.51 0 01-.225.17h-.013c-.169 0-.326-.013-.472-.04a25.394 25.394 0 00-.451-.069c-.488-.068-.98-.102-1.477-.102zM9.857 86c0-.018-.013-.043-.04-.075a.29.29 0 01-.042-.09v-.033a.46.46 0 01.062-.082c.032-.037.066-.073.102-.11l.11-.109a1.69 1.69 0 00.075-.068c.01-.01.039-.019.089-.028a.558.558 0 01.116-.02h.486a.29.29 0 00.054-.007.527.527 0 00.144-.048l.034-.014a.188.188 0 00.11-.15c.013-.073.02-.141.02-.205v-.11c0-.159-.005-.31-.014-.45a14.546 14.546 0 01-.007-.459v-.047c0-.014.002-.04.007-.076l.014-.116a2.676 2.676 0 01.048-.198v-2.98a.432.432 0 00-.048-.22.32.32 0 00-.123-.122.433.433 0 00-.178-.062 1.455 1.455 0 00-.205-.014h-.28a.937.937 0 01-.322-.047c-.086-.032-.13-.11-.13-.233v-.11a.796.796 0 01.035-.13c.218.01.433.003.642-.02a6.1 6.1 0 01.636-.034h.178a.84.84 0 00.11.014l.177.014.178.013c.054.005.093.01.116.014h3.213c.136 0 .234.036.294.11a.639.639 0 01.13.259v.793c0 .027-.005.078-.014.15-.01.069-.02.144-.034.226-.01.078-.02.155-.035.232l-.02.158a.791.791 0 01-.048.061c-.023.023-.039.034-.048.034 0 .01-.004.014-.014.014h-.025c-.014 0-.021-.005-.021-.014a.618.618 0 01-.178-.184 1.435 1.435 0 01-.103-.226 4.68 4.68 0 01-.075-.232.799.799 0 00-.102-.219.38.38 0 00-.09-.089l-.074-.075c-.01-.01-.03-.034-.062-.075a1.829 1.829 0 00-.096-.13 1.78 1.78 0 00-.095-.137.661.661 0 00-.055-.075c-.018-.041-.039-.062-.062-.062a.543.543 0 01-.047-.006 1.527 1.527 0 00-.082-.014.546.546 0 00-.082-.02c-.023-.005-.035-.01-.035-.014a.376.376 0 01-.075-.014 4.611 4.611 0 01-.24-.055.96.96 0 01-.067-.027h-.035a.21.21 0 00-.075.02.286.286 0 01-.068.014h-.02a.71.71 0 00-.117-.013 2.633 2.633 0 00-.198-.007 3.265 3.265 0 00-.205-.007 2.093 2.093 0 00-.11-.007h-.02a.402.402 0 00-.342.17 1.312 1.312 0 00-.089.172l-.068.178-.027.246c-.01.114-.021.234-.035.362l-.027.362c-.01.114-.014.194-.014.24v.088c0 .023.003.062.007.117l.014.177.013.178c.01.055.016.091.021.11.032.04.068.082.11.123a.354.354 0 00.143.081h.376a4.775 4.775 0 00.827-.047.691.691 0 00.02-.048.468.468 0 01.035-.069.897.897 0 00.034-.061 1.865 1.865 0 00.089-.17 7.425 7.425 0 00.15-.349.582.582 0 01.041-.076.47.47 0 00.028-.116c.009-.064.018-.1.027-.11a.267.267 0 01.143-.081.786.786 0 01.178-.02c.064 0 .103.024.116.074a.42.42 0 01.028.157v.253a.566.566 0 01-.014.124.382.382 0 01-.048.109c-.004.04-.009.11-.013.205a72.959 72.959 0 00-.035.793v.588a.25.25 0 00-.013.061 1.92 1.92 0 00-.014.11.873.873 0 01-.02.184.772.772 0 01-.137.082.304.304 0 01-.137.028.155.155 0 01-.102-.041.597.597 0 01-.09-.117.969.969 0 01-.068-.136.596.596 0 01-.034-.137.928.928 0 01-.02-.089 16.625 16.625 0 01-.035-.43.165.165 0 00-.075-.048l-.095-.055c-.028-.01-.071-.02-.13-.034a2.123 2.123 0 00-.192-.034 1.409 1.409 0 00-.184-.028.842.842 0 00-.11-.014h-.075a.848.848 0 00-.116-.006h-.123a.544.544 0 00-.164 0h-.089a.388.388 0 00-.075.006h-.041l-.096.11v.232c0 .27-.01.529-.027.78-.018.246-.028.503-.028.772a.97.97 0 00.034.3.24.24 0 00.11.138.65.65 0 00.191.061c.078.014.173.037.287.069.01 0 .026.006.048.02a.146.146 0 01.048.041h1.038c.01 0 .03-.002.062-.007a.675.675 0 01.102-.02.83.83 0 01.096-.02.307.307 0 01.061-.014h.459a.12.12 0 00.047-.021l.069-.055a1.08 1.08 0 00.068-.061c.018-.018.03-.028.034-.028a.207.207 0 01.075-.02.29.29 0 01.055-.007.173.173 0 00.041-.02.239.239 0 00.041-.062.793.793 0 00.11-.226 1.62 1.62 0 01.088-.232.352.352 0 00.069-.082.627.627 0 00.048-.089.148.148 0 00.04-.02l.069-.055.062-.062a.351.351 0 00.034-.047.3.3 0 01.027-.055l.055-.082a4.24 4.24 0 01.082-.137c0-.004.007-.014.02-.027a.108.108 0 00.028-.02c0-.01.002-.014.006-.014h.014c.069 0 .11.027.123.082.014.05.02.102.02.157v.143a6.074 6.074 0 01.014.445 70.293 70.293 0 00.02.43v.02c0 .06-.01.129-.033.206a.98.98 0 01-.096.212.608.608 0 01-.15.17.308.308 0 01-.178.076 2.386 2.386 0 00-.178-.014 33.982 33.982 0 00-.54-.027 1.106 1.106 0 01-.184-.02h-.247a.777.777 0 01-.157.027 33.985 33.985 0 01-.533.027 4.218 4.218 0 01-.15.007h-2.591a.55.55 0 01-.328.034c0 .01-.016.014-.048.014a.537.537 0 01-.09-.007.427.427 0 00-.054-.007.433.433 0 01-.11.048.433.433 0 01-.115.027.825.825 0 01-.117-.013 3.53 3.53 0 01-.164-.035 1.703 1.703 0 01-.17-.034.873.873 0 01-.125-.027zm9.038-2.707c0 .064.03.11.088.137.06.027.114.04.165.04h.362c.05 0 .1.003.15.008.05.004.1.006.15.006a.791.791 0 00.308-.054c.087-.041.13-.13.13-.267v-.116a3.463 3.463 0 00-.184-.622c-.083-.21-.16-.413-.233-.609a.6.6 0 00-.041-.102.41.41 0 00-.055-.11.37.37 0 00-.075-.088.136.136 0 00-.089-.035.17.17 0 00-.143.076.806.806 0 00-.082.177 2.86 2.86 0 00-.048.212.808.808 0 01-.048.164l-.075.22-.103.334a14.32 14.32 0 01-.11.328 9.964 9.964 0 01-.067.219v.082zm-1.593 2.673h-.034a.415.415 0 00-.069.014 1.699 1.699 0 00-.123.02 11.78 11.78 0 00-.198.02h-.041a.084.084 0 01-.068-.034.242.242 0 01-.041-.075.325.325 0 01-.014-.089.578.578 0 01-.007-.061v-.02c0-.083.027-.138.082-.165.06-.027.116-.052.171-.075.01 0 .032-.007.068-.02.037-.019.076-.037.117-.055l.123-.048a.316.316 0 00.068-.041.828.828 0 01.041-.034l.075-.075c.027-.028.053-.055.075-.082l.069-.069a.339.339 0 01.02-.034c.018-.027.028-.048.028-.062a.68.68 0 01.013-.082.247.247 0 01.034-.082c.123-.246.247-.494.37-.745.123-.255.239-.51.348-.765a.386.386 0 00.055-.117l.055-.143.034-.082.054-.15c.019-.055.035-.105.048-.15a.382.382 0 00.028-.083c.004-.014.018-.045.04-.096a2.75 2.75 0 00.083-.164 2 2 0 00.082-.17 1.28 1.28 0 01.054-.103c.037-.082.071-.155.103-.219.036-.068.07-.148.102-.24.019-.036.042-.077.069-.122.032-.046.061-.094.089-.144.027-.055.05-.107.068-.157a.347.347 0 00.034-.144v-.095a.324.324 0 00-.02-.09 1.019 1.019 0 01-.014-.074c0-.032.018-.073.055-.123a.509.509 0 01.082-.096l.061-.027a1.14 1.14 0 00.11-.048l.095-.048a.269.269 0 00.055-.028l.055-.054.089-.089c.036-.037.068-.07.095-.103l.069-.075a.295.295 0 00.027-.04.422.422 0 01.048-.076.298.298 0 01.061-.068.086.086 0 01.076-.028c.045.014.084.055.116.123.036.069.066.144.089.226.027.077.05.155.068.232a.843.843 0 00.048.15l.02.097c.014.04.025.082.035.123a2.744 2.744 0 01.047.164 6.08 6.08 0 01.048.26 3.657 3.657 0 01.048.245c.005.014.016.057.034.13.023.073.048.158.076.253l.081.287c.028.092.05.164.069.22.036.122.082.245.137.368a1.893 1.893 0 01.164.615.983.983 0 00.095.28.78.78 0 01.055.097.948.948 0 01.075.163c0 .01.003.026.007.048.005.023.01.05.014.082a.55.55 0 01.02.082c.005.023.01.04.014.048 0 .005.005.02.014.048a3.504 3.504 0 00.068.164c.014.023.023.034.027.034.023.119.053.246.09.383.036.137.093.258.17.362a.4.4 0 00.198.137l.301.11c.105.036.196.077.273.123.078.045.117.105.117.177a.26.26 0 01-.062.185.362.362 0 01-.143.096.67.67 0 01-.199.04 3.34 3.34 0 01-.205.007h-.28c-.073 0-.2-.002-.383-.006L21.11 86c-.205-.01-.4-.016-.588-.02a9.005 9.005 0 00-.382-.014c-.05-.018-.08-.039-.09-.062a.385.385 0 01-.013-.116v-.048a.06.06 0 01.007-.027.313.313 0 01.17-.171 1.33 1.33 0 01.226-.075c.082-.018.162-.039.24-.062a.368.368 0 00.191-.164l.014-.048-.014-.047a1.364 1.364 0 00-.034-.171 3.718 3.718 0 00-.048-.22 3.385 3.385 0 00-.068-.293.316.316 0 01-.041-.068l-.062-.124a1.125 1.125 0 00-.061-.13.768.768 0 00-.048-.102.293.293 0 00-.212-.137 1.253 1.253 0 00-.26-.027H19.9a3.01 3.01 0 00-.464.034 2.833 2.833 0 01-.452.034.67.67 0 01-.095-.006.684.684 0 00-.096-.007c-.032.032-.048.057-.048.075-.009.004-.02.023-.034.055a3 3 0 01-.034.095.795.795 0 01-.034.096.286.286 0 00-.014.048.29.29 0 01-.048.082.3.3 0 01-.061.082.982.982 0 00-.096.355c-.01.119-.014.242-.014.37 0 .072.023.127.069.164a.538.538 0 00.17.075 2.9 2.9 0 00.22.048c.077.009.15.025.218.047a.406.406 0 01.17.09c.046.04.07.1.07.177 0 .15-.071.244-.213.28-.018 0-.052-.002-.102-.007a15.948 15.948 0 00-.287-.027.774.774 0 01-.096-.014h-.677l-.11-.006a13.89 13.89 0 00-.197-.014 4.172 4.172 0 00-.199-.02 1.082 1.082 0 00-.11-.014h-.033zM24.26 86a.69.69 0 00-.15.034h-.028c-.06 0-.118-.002-.178-.007a.518.518 0 01-.15-.034.258.258 0 01-.103-.082.246.246 0 01-.04-.15v-.103c.004-.045.059-.077.163-.096.11-.022.23-.036.363-.04.132-.01.257-.017.376-.021.118-.01.189-.027.212-.055a1.202 1.202 0 01.027-.11.112.112 0 00.007-.033c0-.019.002-.046.007-.082a1.05 1.05 0 00.02-.123 1.7 1.7 0 00.027-.199c0-.036.003-.111.007-.225a88.649 88.649 0 00.034-1.053v-.123a2.92 2.92 0 000-.403v-.137l.035-.089.006-.137c.005-.09.01-.198.014-.32.01-.124.016-.25.02-.377.01-.127.014-.232.014-.314v-.951a.373.373 0 00-.013-.081l-.014-.11a.51.51 0 00-.02-.102.578.578 0 01-.007-.062.225.225 0 00-.137-.144.778.778 0 00-.233-.068 1.809 1.809 0 00-.28-.02 2.293 2.293 0 01-.266-.028.602.602 0 01-.205-.068.191.191 0 01-.076-.164c0-.041.014-.078.041-.11a.472.472 0 01.328-.184c.064 0 .142.009.233.027a.6.6 0 00.212.014.95.95 0 00.082-.007 11.78 11.78 0 01.355-.034 38.893 38.893 0 00.417.02 4.3 4.3 0 01.267.02c.082.005.134.01.157.015h.146a.25.25 0 01.061-.014.726.726 0 01.096-.02 2.21 2.21 0 00.096-.014.8.8 0 01.054-.007h.342l.048-.007.082-.014c.032-.004.06-.009.082-.013a.543.543 0 01.048-.007h.047a.06.06 0 01.028-.007c.055 0 .11.002.164.007a.514.514 0 01.15.034.206.206 0 01.11.075.22.22 0 01.048.15.219.219 0 01-.014.062.157.157 0 00-.014.048 7.984 7.984 0 01-.17.103.707.707 0 01-.192.075c-.018 0-.06.004-.123.013-.06.005-.123.012-.191.02a2.221 2.221 0 00-.192.021 1.678 1.678 0 01-.11.007.16.16 0 00-.095.048.186.186 0 00-.048.089 4.756 4.756 0 00-.082.608c-.009.2-.013.406-.013.616v.875l-.014.082a3 3 0 01-.02.157 1.594 1.594 0 01-.021.157 1.2 1.2 0 00-.007.096v1.435a16.221 16.221 0 00-.034.37 1.06 1.06 0 00-.007.075v.095c0 .01.007.035.02.076a.282.282 0 01.021.068c0 .01-.007.025-.02.048a.08.08 0 00-.02.048.127.127 0 00-.008.04.077.077 0 00-.007.035v.027c0 .087.025.169.076.246.054.073.123.11.205.11h.04c.133-.023.27-.044.41-.062.147-.023.286-.034.418-.034h1.155a11.864 11.864 0 00.328-.034.188.188 0 00.055-.02.388.388 0 00.055-.042l.089-.089c.036-.036.068-.07.095-.102a.79.79 0 00.069-.075.806.806 0 01.041-.096.829.829 0 01.047-.096c0-.004.007-.011.02-.02a25.977 25.977 0 00.104-.075.118.118 0 01.034-.014l.034-.034a.269.269 0 00.055-.076.357.357 0 00.04-.088.788.788 0 00.069-.082l.096-.123a4.811 4.811 0 00.157-.206.668.668 0 01.034-.04.198.198 0 01.068-.007c.073 0 .13.03.171.088a.56.56 0 01.09.199c.017.077.026.157.026.239.005.078.007.141.007.191v.178a.43.43 0 01-.006.082v.034c0 .01-.007.035-.021.076a.29.29 0 00-.02.068c-.01.105-.014.196-.014.273a.495.495 0 01-.034.192.264.264 0 01-.11.136.732.732 0 01-.253.096 2.457 2.457 0 01-.225.007c-.11.005-.228.007-.356.007h-1.278c-.119 0-.223-.002-.315-.007a.642.642 0 01-.143-.007 2.55 2.55 0 01-.137-.007 3.95 3.95 0 01-.219-.007 4.01 4.01 0 01-.444-.027 2.41 2.41 0 01-.15-.027.11.11 0 01-.041-.014h-.111c-.023.005-.068.01-.136.014a28.419 28.419 0 01-.575.034h-.458c-.009 0-.04.005-.095.014a.915.915 0 01-.082.02.23.23 0 01-.117.027.917.917 0 01-.095.007.483.483 0 01-.082-.013 2.049 2.049 0 01-.267-.048 1.509 1.509 0 00-.068-.007zm7.232-5.414a.817.817 0 00-.054-.205.345.345 0 00-.09-.13.517.517 0 00-.136-.096l-.205-.102a.626.626 0 00-.157-.048.406.406 0 01-.096-.034.312.312 0 01-.062-.13.65.65 0 01-.02-.13v-.055c.004-.032.016-.054.034-.068a.454.454 0 01.075-.02.637.637 0 00.096-.028c.046-.005.096-.01.15-.014a1.461 1.461 0 01.403.014c.083.01.19.025.322.048h.506c.077 0 .152-.002.225-.007l.22-.014a2.58 2.58 0 00.238-.027.334.334 0 00.082-.02.382.382 0 01.076-.021h.047c.105 0 .201.018.288.055.09.036.136.111.136.225a.209.209 0 01-.082.178.902.902 0 01-.198.11l-.226.095a.394.394 0 00-.17.116.568.568 0 00-.11.185c-.027.068-.05.143-.068.226a2 2 0 00-.027.232 3.507 3.507 0 00-.007.205c0 .073.009.132.027.178a.365.365 0 01.027.225c0 .023-.007.039-.02.048a6.246 6.246 0 00-.02.212c0 .046-.003.089-.008.13a.926.926 0 00-.006.082v.602c0 .022-.01.061-.028.116l-.027.11v.142c0 .009.002.032.007.068a.89.89 0 01.02.116 1.279 1.279 0 01.028.185.728.728 0 01.007.123l.013.178c.005.059.007.116.007.17.005.055.007.094.007.117.004.036.014.084.027.143.014.055.028.112.041.171.018.06.037.116.055.171a.747.747 0 00.054.13c.019.046.05.103.096.17a2.052 2.052 0 00.342.376.469.469 0 00.178.096c.009 0 .03.01.061.028a.21.21 0 00.082.02c.032 0 .048.003.048.007a1.006 1.006 0 01.253.082c.037.014.075.028.116.041.041.014.087.02.137.02h.096a.265.265 0 01.048-.027l.082-.04.082-.035a.283.283 0 01.047-.013h.11c.045-.014.093-.028.143-.041a.89.89 0 01.117-.021c.04-.01.073-.016.095-.02a.748.748 0 00.328-.226c.1-.114.18-.216.24-.308a.443.443 0 00.02-.061.795.795 0 00.034-.096 1.337 1.337 0 00.048-.164c.055-.141.096-.29.123-.444.028-.155.046-.313.055-.472.01-.164.016-.326.02-.485.005-.16.014-.315.028-.465a1.532 1.532 0 01.027-.205.408.408 0 00.007-.055v-.595a8.242 8.242 0 01-.02-.198c-.01-.096-.021-.198-.035-.307l-.027-.308a4.703 4.703 0 01-.007-.212 8.678 8.678 0 00-.055-.13.445.445 0 00-.068-.13.386.386 0 00-.02-.068c-.01-.027-.019-.041-.028-.041-.032-.032-.061-.048-.089-.048a.251.251 0 00-.061.007.153.153 0 01-.11-.007 2.614 2.614 0 01-.314-.082.563.563 0 01-.253-.198.691.691 0 00-.02-.048v-.062a.278.278 0 01.02-.062.429.429 0 01.267-.163 1.54 1.54 0 01.328-.035c.082 0 .164.005.246.014.082.005.162.007.24.007a.864.864 0 00.156-.02c.073-.014.135-.021.185-.021h.424c.04 0 .089-.002.143-.007a1.804 1.804 0 01.445.013.52.52 0 01.218.083c.01.014.014.039.014.075a.78.78 0 01.007.068.304.304 0 01-.068.212.432.432 0 01-.165.11 1.295 1.295 0 01-.211.054.979.979 0 00-.205.062.406.406 0 00-.178.15.398.398 0 00-.069.226.77.77 0 00.021.191.607.607 0 01.027.192v.116a.33.33 0 01-.027.089.696.696 0 00-.02.075v.568c-.005.05-.01.137-.014.26a14.76 14.76 0 01-.02.397l-.014.39c-.005.122-.01.209-.014.26a.545.545 0 00-.048.136.985.985 0 00-.02.13l-.014.123a.452.452 0 01-.02.13 2.65 2.65 0 01-.055.185 4.611 4.611 0 01-.041.177c-.01.009-.016.032-.02.068a5.99 5.99 0 00-.015.103.344.344 0 01-.013.096c-.005.027-.01.04-.014.04a.281.281 0 01-.048.096 1.161 1.161 0 00-.102.171c-.023.05-.05.105-.082.164a2.75 2.75 0 01-.137.26c-.082.155-.19.294-.321.417-.128.123-.265.248-.41.376l-.082.061a4.985 4.985 0 00-.117.076l-.102.075a.414.414 0 00-.055.034h-.198a8.52 8.52 0 00-.232.027 2.786 2.786 0 01-.192.034 1.775 1.775 0 01-.43.048h-.41a.626.626 0 00-.158-.047l-.164-.028a.874.874 0 01-.15-.027.424.424 0 01-.144-.055.627.627 0 01-.089-.048 34.163 34.163 0 00-.157-.11 3.67 3.67 0 00-.164-.115 1.195 1.195 0 01-.123-.103l-.048-.034a.813.813 0 00-.116-.15 3.373 3.373 0 00-.123-.13 3.374 3.374 0 01-.123-.13.881.881 0 01-.096-.171 2.927 2.927 0 01-.205-.704 5.306 5.306 0 01-.055-.752 6.466 6.466 0 01-.013-.226v-2.454c.004-.105.009-.184.013-.24zm10.61-.027a.148.148 0 00.075-.096.473.473 0 00.02-.137c0-.095-.036-.162-.11-.198a.748.748 0 00-.232-.089 7.609 7.609 0 01-.232-.068c-.068-.028-.102-.076-.102-.144 0-.023.009-.04.027-.055a.172.172 0 01.068-.04.633.633 0 01.082-.035.85.85 0 00.082-.027 1.065 1.065 0 01.205-.041h1.204a.685.685 0 01.239-.062 1.992 1.992 0 01.396-.006c.055 0 .1.006.137.02a.175.175 0 01.096.075.298.298 0 01.034.157c0 .096-.027.17-.082.22a.502.502 0 01-.192.115c-.077.023-.16.041-.246.055-.082.014-.155.03-.219.048-.205.073-.387.17-.546.294a2.677 2.677 0 00-.445.437 1.326 1.326 0 00-.075.09 16.58 16.58 0 01-.123.136l-.116.144a2.47 2.47 0 01-.075.082.964.964 0 00-.062.082.351.351 0 01-.082.082.974.974 0 00-.17.191 1.74 1.74 0 00-.137.226 1.906 1.906 0 00-.048.088.357.357 0 00-.014.11c0 .096.025.196.075.3.05.105.098.203.144.295.018.027.04.068.068.123l.082.15c.027.05.05.096.069.137l.04.075.048.082c.032.041.066.089.103.144.036.05.068.097.096.143l.061.089.164.308a6.273 6.273 0 00.362.745c.069.114.146.223.233.328.087.105.187.205.3.3.042.032.094.06.158.083.064.018.125.038.184.061a.416.416 0 01.158.096c.045.036.068.091.068.164 0 .091-.03.148-.089.17a.422.422 0 01-.191.042c-.041 0-.085-.002-.13-.007a1.016 1.016 0 00-.11-.007.467.467 0 01-.136.02 12.43 12.43 0 01-.472.049 3.093 3.093 0 01-.137.006h-.034a.798.798 0 01-.137-.027 2.132 2.132 0 00-.088-.027c-.028-.005-.044-.012-.048-.02a2.93 2.93 0 01-.144-.008l-.225-.013c-.078 0-.15-.003-.22-.007a2.763 2.763 0 00-.129-.007.622.622 0 01-.226-.048v-.048c0-.073.016-.123.048-.15a.727.727 0 01.11-.069.486.486 0 00.109-.082c.036-.031.055-.088.055-.17a.949.949 0 00-.041-.22 2.722 2.722 0 00-.116-.327 5.137 5.137 0 00-.158-.376 2.773 2.773 0 00-.177-.349 1.966 1.966 0 00-.171-.26c-.055-.068-.103-.102-.144-.102a.273.273 0 00-.191.068.555.555 0 00-.13.157c-.037.06-.069.123-.096.192a1.67 1.67 0 01-.082.178 11.55 11.55 0 01-.102.164l-.185.273c-.064.1-.125.194-.185.28a3.556 3.556 0 01-.102.158c-.01.004-.02.02-.034.047a.148.148 0 01-.028.048v.048c0 .064.028.11.082.137.055.027.119.052.192.075.073.018.146.043.218.075a.337.337 0 01.178.137c0 .06-.016.1-.048.123a.302.302 0 01-.102.041h-1.914c-.037 0-.06-.014-.069-.041a.565.565 0 01-.006-.068v-.055a.753.753 0 01.184-.157 2.465 2.465 0 01.451-.198c.078-.032.15-.071.22-.117.017-.018.054-.052.108-.102l.171-.171c.064-.06.123-.116.178-.171.06-.055.1-.094.123-.116.119-.137.219-.278.3-.424.087-.15.172-.303.254-.458a.376.376 0 01.061-.062.378.378 0 00.055-.061 4.047 4.047 0 00.205-.308v-.034a.535.535 0 00.007-.089.64.64 0 00.007-.089.544.544 0 00.007-.068.406.406 0 00-.007-.062.64.64 0 00-.007-.088.535.535 0 00-.007-.09v-.06a.86.86 0 01-.287-.267 2.594 2.594 0 01-.178-.356.45.45 0 00-.04-.075l-.07-.11a1.149 1.149 0 00-.068-.109.415.415 0 00-.034-.061 8.336 8.336 0 01-.082-.171.886.886 0 00-.082-.164c-.009-.005-.018-.019-.027-.041a19.69 19.69 0 01-.027-.082l-.028-.082a.226.226 0 00-.013-.055l-.014-.014a.03.03 0 00-.02-.007.08.08 0 01-.014-.02.454.454 0 01-.048-.041 1.632 1.632 0 01-.219-.356 1.308 1.308 0 00-.205-.341 1.344 1.344 0 00-.184-.178 2.055 2.055 0 00-.199-.15 7.18 7.18 0 00-.198-.137 1.58 1.58 0 01-.198-.157.146.146 0 01-.069-.082.893.893 0 01-.006-.11c0-.05.011-.082.034-.096a.22.22 0 01.11-.02h.026l.028.007.068.013.069.014a.294.294 0 00.047.007h.035c.291 0 .578-.01.86-.027.288-.019.575-.028.862-.028.11 0 .19.014.24.041.054.023.081.087.081.192 0 .09-.018.155-.054.191a.425.425 0 01-.123.075.536.536 0 00-.123.069c-.037.027-.055.082-.055.164 0 .036.014.084.041.143.027.055.05.094.068.116.014.023.044.08.09.171.05.087.102.183.156.287a35.832 35.832 0 01.26.445c.032.045.06.082.082.11.028.026.06.04.096.04a.343.343 0 00.185-.068c.072-.05.166-.119.28-.205a.621.621 0 00.137-.171 3.32 3.32 0 00.246-.492c.036-.078.066-.132.088-.164zm8.667 5.427a.718.718 0 00-.082.007h-.102a.536.536 0 00-.089.007h-.04l-.165.061-.84-.047H47.66a1.322 1.322 0 00-.178-.048.85.85 0 00-.164-.014.747.747 0 00-.116.007.415.415 0 00-.11.041c-.045 0-.122-.002-.232-.007a7.664 7.664 0 00-.676 0 6.122 6.122 0 01-.212.007.74.74 0 00-.075.007.774.774 0 01-.11.007l-.11.013a.58.58 0 01-.06.007.153.153 0 01-.049.007.128.128 0 01-.04.007H45.5a.74.74 0 01-.28-.041c-.06-.023-.112-.096-.157-.219-.019 0-.028-.004-.028-.014-.004-.004-.004-.011 0-.02a.24.24 0 01.034-.116.64.64 0 01.096-.123.7.7 0 01.123-.09.253.253 0 01.13-.04h.65c.009 0 .038-.025.088-.075.05-.055.091-.096.123-.124a.148.148 0 00.028-.054.206.206 0 00.02-.069c.055-.268.087-.535.096-.8.009-.264.014-.54.014-.827v-.15a5.99 5.99 0 00.006-.287l.014-.342c.005-.123.007-.239.007-.348.004-.11.007-.203.007-.28.004-.083.007-.137.007-.165v-.369c0-.365-.007-.725-.021-1.08-.014-.355-.02-.709-.02-1.06v-.047l.006-.103a34.53 34.53 0 00.035-.465c.004-.04.009-.111.013-.212a94.642 94.642 0 00.034-.868.828.828 0 01-.04-.212 3.021 3.021 0 00-.021-.218.757.757 0 00-.055-.206.409.409 0 00-.13-.164 3.263 3.263 0 00-.362-.02l-.212-.014a7.393 7.393 0 01-.376-.048 1.225 1.225 0 01-.24-.075.575.575 0 01-.184-.143.37.37 0 01-.068-.233l.027-.013a.08.08 0 00.02-.014c.005-.005.012-.007.021-.007.11-.064.208-.105.294-.123.087-.023.199-.034.335-.034h.034a.264.264 0 00.096.061c.228.019.456.032.684.041a34.96 34.96 0 001.25 0c.183-.004.363-.007.54-.007h1.511a.896.896 0 00.09-.006c.04-.005.084-.007.13-.007l.143-.014a1.4 1.4 0 01.102-.007h.089a11.919 11.919 0 00.26.02c.06 0 .114.003.164.008a1.7 1.7 0 00.102.006h.814c.036.005.089.01.157.014l.212.014c.073.004.137.011.191.02.055.005.085.01.09.014a.928.928 0 01.273.137.714.714 0 01.096.061c.045.028.082.094.109.198.032.1.057.212.075.335.018.123.032.244.041.363.014.118.025.21.034.273 0 .023.003.064.007.123.01.055.016.114.02.178l.014.184c.005.06.007.1.007.124v.375a.171.171 0 01-.089.083.479.479 0 01-.116.013h-.048a.39.39 0 01-.164-.191 48.516 48.516 0 00-.04-.11.378.378 0 00-.056-.116c0-.004-.009-.013-.027-.027a.51.51 0 00-.102-.103l-.035-.034a3.645 3.645 0 01-.191-.307 1.763 1.763 0 00-.212-.329.22.22 0 00-.048-.047.251.251 0 01-.048-.062c-.004-.01-.02-.016-.047-.02a.15.15 0 01-.055-.028.482.482 0 01-.13-.123 1.414 1.414 0 00-.103-.13.97.97 0 00-.109-.13.473.473 0 00-.17-.102c-.037 0-.108-.002-.213-.007a6.43 6.43 0 00-.321-.02 9.177 9.177 0 00-.328-.021l-.212-.02h-.356l-.061-.007a.655.655 0 00-.11-.02 1.24 1.24 0 00-.116-.021.409.409 0 00-.068-.014h-.198a.974.974 0 00-.123.014 3.62 3.62 0 00-.199.02 2.576 2.576 0 00-.198.02c-.06.005-.096.007-.11.007h-.403a.122.122 0 00-.061.021c-.023.01-.034.018-.034.027v.848a1.771 1.771 0 01-.062.417 1.512 1.512 0 00-.054.403c0 .205.009.413.027.622.023.206.034.415.034.63 0 .145-.011.293-.034.444-.018.15-.027.305-.027.465v.047a.97.97 0 01.054.062c.023.023.044.034.062.034h.348a.57.57 0 00.062-.007.675.675 0 01.102-.02.83.83 0 01.096-.02.413.413 0 01.055-.014h.608c.032 0 .09-.003.171-.007a4.66 4.66 0 01.267-.007l.266-.014c.082-.004.14-.007.171-.007a.518.518 0 00.15-.26c.032-.118.064-.216.096-.293a.562.562 0 00.014-.096c.01-.055.018-.112.027-.171l.028-.164a.327.327 0 01.027-.103.12.12 0 01.014-.034.921.921 0 00.075-.123.421.421 0 01.027-.034.837.837 0 00.034-.191.742.742 0 01.035-.185.309.309 0 01.089-.143c.04-.037.107-.055.198-.055.1 0 .166.023.198.068.032.046.048.12.048.226a.37.37 0 01-.007.082 2.29 2.29 0 00-.034.13.258.258 0 00-.007.061c0 .037.002.07.007.103a.406.406 0 01.007.061c-.005.028-.01.085-.014.171-.005.087-.011.187-.02.3-.01.115-.019.238-.028.37a68 68 0 01-.027.37c-.01.113-.018.213-.028.3a2.51 2.51 0 01-.013.178l.007.13c.004.073.006.148.006.225a.634.634 0 01-.013.123l-.02.082-.014.034-.02.083a.546.546 0 01-.021.082.285.285 0 00-.007.047 11.983 11.983 0 01.02.26 2.114 2.114 0 01.028.246v.082a.735.735 0 01.006.103v.096a.77.77 0 01-.116.499c-.004.022-.027.047-.068.075a.214.214 0 01-.069.034.266.266 0 01-.075-.034.268.268 0 01-.082-.076.513.513 0 01-.164-.266 2.247 2.247 0 01-.055-.37 6.282 6.282 0 01-.013-.416 2.6 2.6 0 00-.028-.39.817.817 0 00-.088-.308.297.297 0 00-.22-.15.772.772 0 01-.17.014h-.526a.626.626 0 01-.164-.014c-.023 0-.06-.002-.11-.007a1.724 1.724 0 00-.157-.007l-.15-.013a1.118 1.118 0 00-.096-.007c-.005-.014-.023-.03-.055-.048a.186.186 0 00-.061-.027h-.069a.709.709 0 00-.341.089.357.357 0 00-.192.266 5.451 5.451 0 01-.034.192l-.048.3c-.014.11-.03.217-.048.322-.014.1-.023.175-.027.225v.089c0 .037.002.096.007.178a33.736 33.736 0 01.027.533c.01.082.014.14.014.171a.329.329 0 01.04.082.251.251 0 01.008.061 4.9 4.9 0 01-.028.52 4.972 4.972 0 00-.027.533v.117c.004.059.007.1.007.123a.35.35 0 00.034.047.757.757 0 01.055.062l.068.055a.35.35 0 00.048.034c.004.009.025.016.061.02.041.005.087.01.137.014.05 0 .098.005.144.014.05.004.089.009.116.013.055 0 .148.003.28.007a141.93 141.93 0 00.861.028h.288a.762.762 0 00.164.047c.059.01.116.014.17.014h.5l.047-.007a.506.506 0 01.09-.02.778.778 0 01.095-.02.283.283 0 01.048-.014h1.299a.397.397 0 00.143-.076 1.73 1.73 0 00.13-.13 1.567 1.567 0 00.191-.294.373.373 0 00.055-.095 27.884 27.884 0 00.191-.41l.062-.082c.032-.041.048-.067.048-.076a.807.807 0 00.048-.15.818.818 0 00.034-.041l.068-.068a.825.825 0 00.171-.246.757.757 0 00.041-.096l.028-.062a.348.348 0 01.075-.082.406.406 0 00.075-.068c.01-.01.02-.016.034-.02a.222.222 0 00.034-.028.175.175 0 01.041-.02.39.39 0 01.082.068l.082.082v.034a.459.459 0 01-.027.157.654.654 0 000 .321.44.44 0 01.027.165v.054c0 .014-.009.04-.027.076a.264.264 0 00-.02.082v.8a9.897 9.897 0 01-.021.211 1.07 1.07 0 01-.055.24.581.581 0 01-.116.191.256.256 0 01-.198.082h-.034a.438.438 0 00-.069-.014l-.095-.013a4.46 4.46 0 01-.13-.02l-.041-.028c-.028-.018-.041-.03-.041-.034h-.076c-.159.054-.31.082-.45.082-.142 0-.29.009-.445.027a.744.744 0 00-.075.007l-.123.013-.116.028a.439.439 0 00-.069.02h-.034a.774.774 0 01-.232-.034.757.757 0 00-.24-.034h-.075a1.058 1.058 0 00-.13-.007h-.143a1.186 1.186 0 00-.117-.007z" fill="#151618"/></svg>