<svg width="26" height="20" fill="none" xmlns="http://www.w3.org/2000/svg"><g clip-path="url(#clip0_131_383)"><path d="M4.727 19.9v-1.323c0-.508-.312-.838-.848-.838-.267 0-.557.088-.758.375-.156-.243-.379-.375-.713-.375a.723.723 0 00-.624.308v-.264h-.469V19.9h.469v-1.17c0-.375.2-.551.513-.551.312 0 .468.198.468.551v1.17h.468v-1.17c0-.375.223-.551.513-.551.312 0 .468.198.468.551v1.17h.513zm6.934-2.117h-.758v-.64h-.469v.64h-.423v.419h.423v.97c0 .486.2.773.736.773.2 0 .424-.066.58-.154l-.134-.398a.74.74 0 01-.401.11c-.223 0-.313-.132-.313-.352v-.95h.759v-.418zm3.968-.045a.63.63 0 00-.557.31v-.265h-.468V19.9h.468v-1.192c0-.353.156-.551.446-.551.089 0 .2.022.29.044l.133-.441c-.089-.022-.223-.022-.312-.022zm-5.997.221c-.223-.154-.535-.22-.87-.22-.535 0-.892.264-.892.683 0 .354.268.552.736.618l.223.022c.245.044.379.11.379.221 0 .154-.178.265-.49.265a1.24 1.24 0 01-.714-.22l-.223.352c.245.177.58.265.914.265.624 0 .981-.287.981-.684 0-.375-.29-.574-.736-.64l-.222-.022c-.201-.022-.357-.066-.357-.198 0-.155.156-.243.401-.243.268 0 .535.11.669.176l.2-.375zm12.44-.22a.63.63 0 00-.557.308v-.264h-.468V19.9h.468v-1.192c0-.353.156-.551.446-.551.09 0 .2.022.29.044l.134-.441c-.09-.022-.223-.022-.312-.022zm-5.975 1.103c0 .64.446 1.103 1.137 1.103.313 0 .535-.066.758-.243l-.223-.375a.907.907 0 01-.557.199c-.379 0-.646-.265-.646-.684 0-.397.267-.662.646-.684.2 0 .38.066.558.198l.222-.375c-.223-.176-.445-.242-.758-.242-.69 0-1.137.463-1.137 1.103zm4.326 0v-1.06h-.468v.265a.809.809 0 00-.67-.308c-.601 0-1.07.463-1.07 1.103 0 .64.469 1.103 1.07 1.103.313 0 .536-.11.67-.309v.265h.468v-1.06zm-1.717 0c0-.375.245-.684.646-.684.38 0 .647.287.647.684 0 .375-.267.684-.647.684-.4-.023-.646-.31-.646-.684zm-5.596-1.103c-.624 0-1.07.44-1.07 1.103 0 .662.445 1.103 1.092 1.103.312 0 .624-.088.87-.287l-.223-.33c-.179.131-.402.22-.625.22-.29 0-.58-.133-.646-.508h1.583v-.176c.022-.684-.38-1.125-.981-1.125zm0 .397c.29 0 .49.176.535.507H12.53c.045-.287.245-.507.58-.507zm11.616.706v-1.898h-.468v1.104a.809.809 0 00-.67-.31c-.601 0-1.07.464-1.07 1.104 0 .64.469 1.103 1.07 1.103.313 0 .536-.11.67-.309v.265h.468v-1.06zm-1.717 0c0-.375.245-.684.646-.684.38 0 .647.287.647.684 0 .375-.267.684-.646.684-.402-.023-.647-.31-.647-.684zm-15.652 0v-1.06H6.89v.265a.809.809 0 00-.669-.308c-.602 0-1.07.463-1.07 1.103 0 .64.468 1.103 1.07 1.103.313 0 .536-.11.67-.309v.265h.467v-1.06zm-1.739 0c0-.375.246-.684.647-.684.379 0 .647.287.647.684 0 .375-.268.684-.647.684-.401-.023-.647-.31-.647-.684z" fill="#151618"/><path d="M9.476 1.699h7.023v12.487H9.476V1.7z" fill="#FF5F00"/><path d="M9.922 7.943c0-2.538 1.204-4.788 3.054-6.244A8.03 8.03 0 008.026 0C3.59 0 0 3.552 0 7.943c0 4.39 3.59 7.942 8.026 7.942a8.03 8.03 0 004.95-1.699 7.901 7.901 0 01-3.054-6.243z" fill="#EB001B"/><path d="M25.974 7.943c0 4.39-3.59 7.942-8.026 7.942a8.03 8.03 0 01-4.95-1.699 7.868 7.868 0 003.055-6.243c0-2.538-1.204-4.788-3.055-6.244A8.03 8.03 0 0117.948 0c4.437 0 8.026 3.574 8.026 7.943z" fill="#F79E1B"/></g><defs><clipPath id="clip0_131_383"><path fill="#fff" d="M0 0h26v20H0z"/></clipPath></defs></svg>