<svg width="29" height="12" fill="none" xmlns="http://www.w3.org/2000/svg"><g clip-path="url(#clip0_131_389)"><path d="M20.556 3.239c.798 0 1.414.226 1.885.677.47.452.688 1.054.688 1.807v3.613h-1.014v-.828h-.037c-.434.677-1.05 1.016-1.775 1.016-.616 0-1.16-.188-1.595-.565a2.034 2.034 0 01-.652-1.467c0-.603.217-1.092.652-1.468.435-.377 1.051-.527 1.776-.527.652 0 1.16.113 1.558.376V5.61c0-.352-.126-.703-.379-.932l-.056-.047a1.546 1.546 0 00-1.05-.414c-.617 0-1.088.264-1.414.79l-.942-.602c.58-.79 1.34-1.166 2.355-1.166zm-5.11-2.56a2.64 2.64 0 011.763.674l.086.08c.507.45.76 1.128.76 1.843 0 .715-.253 1.355-.76 1.844a2.58 2.58 0 01-1.848.753l-1.74-.038v3.5H12.62V.68h2.827zM20.702 6.4c-.434 0-.797.113-1.087.339a.892.892 0 00-.435.79c0 .301.145.565.363.715.253.188.543.301.833.301.406 0 .812-.164 1.13-.46l.066-.067c.362-.338.544-.752.544-1.204-.326-.263-.798-.414-1.414-.414zM15.52 1.733h-1.812v3.011h1.812c.399 0 .798-.15 1.051-.451.58-.565.58-1.506.036-2.07l-.036-.038c-.29-.301-.652-.49-1.05-.452zM29 3.427l-3.588 8.543h-1.087l1.341-2.973-2.355-5.532h1.16l1.702 4.252h.037l1.667-4.252H29v-.038z" fill="#5F6368"/><path d="M9.395 5.083a9.36 9.36 0 00-.073-1.016h-4.53v1.92h2.574c-.11.601-.435 1.166-.943 1.504v1.242h1.559c.906-.865 1.413-2.145 1.413-3.65z" fill="#4285F4"/><path d="M4.793 9.938c1.304 0 2.391-.452 3.189-1.205L6.423 7.491c-.435.301-.978.49-1.63.49-1.233 0-2.32-.866-2.682-2.07H.516v1.28c.834 1.693 2.465 2.747 4.277 2.747z" fill="#34A853"/><path d="M2.11 5.91a2.905 2.905 0 010-1.919v-1.28H.517c-.688 1.393-.688 3.05 0 4.48l1.595-1.28z" fill="#FBBC04"/><path d="M4.793 1.96c.688 0 1.34.263 1.848.752l1.377-1.43c-.87-.828-2.03-1.318-3.19-1.28-1.81 0-3.478 1.054-4.274 2.747l1.594 1.28c.326-1.204 1.413-2.07 2.646-2.07z" fill="#EA4335"/></g><defs><clipPath id="clip0_131_389"><path fill="#fff" d="M0 0h29v12H0z"/></clipPath></defs></svg>