<svg width="74" height="105" fill="none" xmlns="http://www.w3.org/2000/svg"><path d="M46.08 1.29c-.69.73-2.326 2.278-3.631 3.467-4.351 3.926-5.237 5.33-5.357 8.54-.09 2.608.54 4.585 2.176 6.834.435.602.795 1.06.795 1.003 0-.043-.27-.601-.6-1.232-1.26-2.407-1.636-5.33-.945-7.408.645-1.948 1.59-3.123 4.786-5.946a25.35 25.35 0 001.845-1.79l.645-.717-.09 3.009c-.045 1.991-.15 3.367-.315 4.083-.555 2.422-1.635 4.342-3.6 6.448-1.426 1.533-1.831 2.407-1.441 3.123.06.13.165.674.225 1.19l.09.946-.855.544c-2.896 1.834-4.936 4.485-5.761 7.494-.225.802-.315 1.576-.315 2.822-.015 2.651.495 4.858 1.785 7.637l.675 1.462-.24 1.146c-.24 1.16-.315 4.614-.105 5.517.075.358.165.43.54.43h.45l.105-1.849c.39-6.591 2.67-10.417 8.027-13.469 4.126-2.35 5.341-3.668 8.087-8.769 2.16-4.055 2.85-5.13 4.516-7.178l.945-1.16-1.335.544c-2.16.888-5.267 1.777-9.017 2.579-3.601.76-5.236 1.204-6.482 1.805-.39.187-.75.344-.795.344-.045 0-.06-.573-.015-1.29.075-1.533.09-1.561 2.416-3.882 1.26-1.247 1.785-1.906 2.22-2.723.96-1.82 1.035-2.35.93-5.86-.105-3.296.075-5.445.675-7.838.15-.616.27-1.132.256-1.146-.015-.014-.6.573-1.29 1.29zm6.916 22.466c-3.016 5.302-5.116 7.552-9.932 10.66-.946.617-2.056 1.39-2.46 1.706-1.486 1.175-3.182 3.496-3.827 5.23-.15.415-.315.702-.36.63-.24-.358-.885-3.281-1.035-4.642-.495-4.514 1.26-8.468 4.951-11.119 2.116-1.533 4.036-2.235 7.907-2.909 1.65-.286 4.276-1.017 5.4-1.49.256-.1.466-.172.496-.157.015.014-.495.96-1.14 2.091zM19.681 4.868c.895 3.229 1.163 7.461.73 11.422-.536 4.935-.089 6.428 3.103 10.488.865 1.09 1.834 2.511 2.177 3.142.97 1.88 1.491 4.549 1.506 7.763v1.334l-.358-.143c-.835-.302-2.341-.43-6.129-.503-2.207-.043-4.489-.143-5.07-.2-.567-.072-1.06-.1-1.074-.087-.03.015.268.244.671.517 1.685 1.162 3.385 2.669 5.354 4.75 1.163 1.219 2.55 2.568 3.102 2.984 2.356 1.793 5.055 2.84 8.32 3.214 1.343.157.806-.33-1.46-1.277-3.61-1.521-5.414-2.755-8.188-5.582-1.044-1.062-2.311-2.195-2.803-2.525l-.895-.574h1.76c4.623 0 7.232.86 9.454 3.114a8.953 8.953 0 012.297 3.96c.12.473.254.89.298.932.15.13.105-1.693-.06-2.697-.342-2.08-2.072-4.376-4.056-5.38l-.865-.431V36.72c0-4.706-.432-6.327-2.699-10-2.997-4.879-3.49-6.801-3.4-13.56.03-2.094.075-3.816.09-3.802 0 .015.313.417.67.89.373.473 1.7 1.894 2.968 3.157 3.072 3.056 4.25 4.82 4.981 7.475.82 2.913.15 6.988-1.79 10.919-.357.732-.626 1.334-.61 1.334.029 0 .283-.344.58-.775 2.342-3.386 3.52-7.202 3.341-10.775-.104-1.951-.507-3.472-1.357-5.165-.865-1.75-1.864-2.985-4.757-5.869a122.14 122.14 0 01-5.428-5.753l-.627-.718.224.79z" fill="#151618"/><path d="M46.573 40.036c-3.426.699-5.755 3.608-5.77 7.174 0 .713-.03.77-.465.913-.782.257-.21.385 2.208.485 3.456.143 5.574-.242 7.377-1.355.496-.3 1.743-1.255 2.78-2.125 2.103-1.74 3.184-2.482 4.957-3.38l1.187-.6-1.442-.1c-.781-.042-2.178-.228-3.11-.385-.931-.156-2.404-.413-3.275-.556-1.833-.314-3.155-.342-4.447-.071zm4.958 1.783c.736.17 1.878.356 2.509.4l1.171.099-1.637 1.255c-2.494 1.911-4.147 2.781-6.265 3.295-1.082.27-5.92.97-6.025.87-.135-.128.3-1.455.827-2.496.916-1.811 2.644-3.11 4.822-3.637 1.112-.271 2.855-.186 4.598.214zM13.056 55.64c-.18 7.75.241 10.37 2.272 14.274 1.067 2.045 2.797 4.436 4.03 5.56.301.273.542.532.542.576 0 .057-3.745.072-8.302.043-4.573-.029-8.468 0-8.664.043-.18.043-.42.245-.511.432-.136.303-.12.404.105.648.27.288.436.288 33.947.288 22.936 0 33.765-.043 33.976-.144.391-.201.391-.95 0-1.152-.195-.086-3.294-.144-9.04-.144h-8.738l.918-1.051c2.617-2.953 4.316-6.194 5.43-10.327.315-1.138.345-1.628.39-7.39l.075-6.15H13.163l-.106 4.494zM6.814 79.455c5.082 2.29 12.916 4.158 20.224 4.822 1.293.128 1.88.227 1.654.283-.316.085-.331.1-.076.113.166.015 1.188.085 2.256.17 5.503.382 17.291.156 16.96-.34-.045-.07-.03-.098.06-.056.076.043.346.028.587-.042.421-.113.421-.113-.165-.142-.361-.014.406-.184 1.88-.424 4.585-.735 8.36-1.626 11.457-2.701 1.774-.623 5.217-2.037 5.458-2.263.075-.07-11.668-.127-30.824-.113l-30.974.014 1.503.679zm-.987 20.996h-.202a.429.429 0 00-.132.035l-.088.018a.348.348 0 01-.052.008c-.3.03-.601.047-.906.053-.304.012-.61.018-.914.018-.064 0-.146-.003-.246-.009-.094 0-.184-.012-.272-.035a.702.702 0 01-.229-.123.28.28 0 01-.097-.229c0-.076.018-.152.053-.228a.305.305 0 01.15-.159c.058-.005.16-.011.307-.017l.457-.018c.164-.011.32-.02.466-.026.147-.012.25-.023.308-.035h.14c.059-.006.117-.015.176-.026a.915.915 0 00.167-.062.294.294 0 00.123-.097c.07-.146.106-.302.106-.466v-.975c0-.018.003-.059.008-.123.012-.065.02-.135.027-.211.011-.076.023-.15.035-.22.012-.07.017-.114.017-.132.03-.609.047-1.221.053-1.837.006-.615.009-1.227.009-1.837 0-.257-.003-.51-.009-.755a31 31 0 01-.009-.739v-.43c.006-.205.01-.416.01-.633v-.624c.005-.2.008-.337.008-.413a.884.884 0 00-.123-.29 1.014 1.014 0 00-.193-.238 1.56 1.56 0 00-.159-.017 2.413 2.413 0 00-.228-.026 3.062 3.062 0 00-.378-.036.532.532 0 00-.088.018 1.92 1.92 0 00-.14.026 1.178 1.178 0 00-.141.027.998.998 0 01-.088.008 1.684 1.684 0 01-.22.01h-.677c-.105 0-.181-.004-.228-.01a1.391 1.391 0 01-.29.08.649.649 0 00-.299.114c0 .011-.018.035-.053.07l-.07.07-.193.22a9.157 9.157 0 00-.229.273 5.452 5.452 0 01-.21.246 4.64 4.64 0 01-.097.114 1.044 1.044 0 00-.124.22 2.66 2.66 0 01-.123.263 1.037 1.037 0 01-.167.22.323.323 0 01-.237.097c-.07 0-.12-.018-.15-.053a.527.527 0 01-.07-.14v-.08a.868.868 0 00-.008-.123v-.422a.763.763 0 00.008-.105v-.062c.006-.017.018-.061.036-.131A12.186 12.186 0 00.483 90a.713.713 0 01.053-.132c0-.018.006-.056.018-.114l.035-.185a7.348 7.348 0 00.07-.299c0-.011.009-.044.027-.096a2.77 2.77 0 00.07-.176 7.06 7.06 0 00.061-.176.391.391 0 00.036-.097 2.5 2.5 0 00.052-.158c.024-.064.05-.123.08-.176a.532.532 0 01.122-.132.245.245 0 01.167-.061c.1 0 .18.026.238.08.064.052.123.11.175.175.053.064.106.132.159.202a.396.396 0 00.193.132c.123 0 .252-.003.387-.009a9.11 9.11 0 01.404-.009c.252 0 .501.006.747.018.246.012.49.038.73.079l.035.017a.347.347 0 01.07.027l.08.017c.029.006.046.01.052.01h.281c.153 0 .29-.015.413-.045.13-.029.273-.044.43-.044h.239c.047 0 .088.003.123.01a.18.18 0 01.07.008c.024 0 .07.006.141.017.076.006.158.015.246.027l.238.017c.076.006.126.01.149.01a.974.974 0 01.167-.045c.07-.011.161-.02.272-.026a8.9 8.9 0 01.44-.009c.176-.006.395-.009.66-.009l1.59.018a.59.59 0 00.308-.097c.105-.07.21-.15.316-.237l.308-.273c.105-.087.208-.149.307-.184h.106c.17 0 .29.09.36.272l.035.396c.018.187.035.387.053.598a45.772 45.772 0 00.132 1.054c.006.03.011.065.017.106a.69.69 0 01.035.158v.132c0 .152-.005.29-.017.413l-.044.422a.205.205 0 01-.088.096.236.236 0 01-.088.018c-.017 0-.035-.009-.053-.026a.11.11 0 01-.043-.027.665.665 0 01-.229-.175 1.773 1.773 0 01-.158-.247 3.835 3.835 0 01-.114-.272 4.5 4.5 0 00-.106-.273 1.28 1.28 0 00-.492-.606 4.254 4.254 0 00-.694-.387 1.144 1.144 0 00-.449-.096c-.146 0-.304-.012-.474-.036a.885.885 0 01-.132-.035.483.483 0 00-.14-.044h-.845a.856.856 0 00-.202.035c-.088.018-.134.033-.14.044a.65.65 0 01-.062.07.58.58 0 00-.079.124c-.023.04-.05.096-.079.167a.783.783 0 00-.044.105.584.584 0 00-.018.097 7.6 7.6 0 00-.017.132c0 .047-.003.094-.009.14a.563.563 0 01-.017.088c0 .094.002.255.008.484a28.907 28.907 0 010 1.485c-.006.229-.008.384-.008.466 0 .299-.024.592-.07.879a6.023 6.023 0 00-.062.87c0 .322.008.644.026.967.023.316.035.641.035.975 0 .405-.012.812-.035 1.222-.018.41-.026.82-.026 1.23 0 .124.026.22.079.29.058.07.132.123.22.159.087.035.184.058.29.07.11.012.216.02.316.026.047.006.12.012.22.018a111.621 111.621 0 00.861.044.46.46 0 01.246.193.512.512 0 01.088.29.43.43 0 01-.114.317c-.076.07-.173.143-.29.219h-.018c-.217 0-.419-.017-.606-.052a25.46 25.46 0 00-.58-.088 13.641 13.641 0 00-1.899-.132zm6.847.105c0-.023-.018-.055-.053-.096a.368.368 0 01-.053-.115v-.043a.572.572 0 01.08-.106c.04-.047.084-.094.131-.141l.14-.14c.048-.041.08-.07.098-.088.011-.012.05-.023.114-.035a.725.725 0 01.15-.027h.623a.375.375 0 00.07-.008.827.827 0 01.097-.027 11.29 11.29 0 01.132-.053.242.242 0 00.14-.193 1.44 1.44 0 00.027-.263v-.141a8.97 8.97 0 00-.018-.58 19.074 19.074 0 01-.008-.59v-.06c0-.018.003-.05.008-.097a9.69 9.69 0 00.018-.15 3.407 3.407 0 01.062-.255v-3.832a.556.556 0 00-.062-.28.41.41 0 00-.158-.16.557.557 0 00-.229-.078 1.87 1.87 0 00-.263-.018h-.36a1.21 1.21 0 01-.414-.061c-.111-.041-.167-.14-.167-.3v-.14c.006-.04.02-.096.044-.167.281.012.557.003.826-.026.27-.03.542-.044.818-.044h.228c.024.006.07.012.14.017l.23.018.228.018c.07.005.12.011.15.017h4.13c.176 0 .302.047.378.14.076.089.132.2.167.335v1.02c0 .035-.006.099-.017.193a9.004 9.004 0 01-.044.29c-.012.1-.027.199-.044.299-.012.093-.02.16-.027.202a1.067 1.067 0 01-.061.079c-.03.03-.05.044-.062.044 0 .011-.006.017-.017.017h-.035c-.018 0-.027-.005-.027-.017a.794.794 0 01-.228-.237 1.836 1.836 0 01-.132-.29 5.93 5.93 0 01-.097-.3 1.025 1.025 0 00-.132-.28.493.493 0 00-.114-.115l-.097-.096a1.471 1.471 0 01-.079-.097 2.398 2.398 0 00-.123-.167 2.267 2.267 0 00-.123-.176.854.854 0 00-.07-.097c-.024-.052-.05-.079-.08-.079a.663.663 0 01-.06-.009 1.973 1.973 0 00-.106-.017.678.678 0 00-.106-.026c-.029-.006-.044-.012-.044-.018a.48.48 0 01-.096-.018 5.703 5.703 0 01-.308-.07 1.303 1.303 0 01-.088-.035h-.044a.269.269 0 00-.096.026.369.369 0 01-.088.018h-.027a.913.913 0 00-.15-.018 3.38 3.38 0 00-.254-.009 4.284 4.284 0 00-.264-.008 2.678 2.678 0 00-.14-.01h-.027a.516.516 0 00-.44.22c-.04.065-.078.138-.113.22l-.088.229c-.006.064-.018.17-.035.316-.012.147-.027.302-.044.466l-.036.466a4.533 4.533 0 00-.017.307v.115c0 .03.003.079.009.15l.017.228.018.228c.012.07.02.117.026.14.041.054.088.106.14.159.06.053.12.088.185.105h.484c.199 0 .372-.002.518-.008.153-.006.334-.024.545-.053a.98.98 0 00.027-.061.622.622 0 01.044-.088c.017-.03.032-.056.044-.08a2.434 2.434 0 00.114-.22l.105-.237c.035-.082.065-.152.088-.21a.728.728 0 01.053-.097.612.612 0 00.035-.15c.012-.082.024-.129.035-.14a.342.342 0 01.185-.106c.076-.017.152-.026.228-.026.082 0 .132.032.15.097a.542.542 0 01.035.202v.325a.73.73 0 01-.018.158.493.493 0 01-.061.14 4.67 4.67 0 00-.018.264 93.053 93.053 0 00-.044 1.02v.756a.327.327 0 00-.017.079 4.574 4.574 0 00-.018.14 1.144 1.144 0 01-.026.238.987.987 0 01-.176.105.39.39 0 01-.176.035.2.2 0 01-.132-.052.772.772 0 01-.114-.15 1.231 1.231 0 01-.088-.175.77.77 0 01-.044-.176 1.263 1.263 0 01-.026-.115 26.937 26.937 0 01-.044-.553.212.212 0 00-.097-.062l-.123-.07a1.077 1.077 0 00-.791-.14h-.097a1.071 1.071 0 00-.149-.01h-.158a1.182 1.182 0 00-.123-.008.705.705 0 00-.088.009h-.114a.49.49 0 00-.097.008h-.053l-.123.141v.299c0 .346-.011.68-.035 1.002-.023.316-.035.647-.035.993 0 .176.014.305.044.387a.31.31 0 00.14.175.805.805 0 00.247.08c.1.017.222.046.369.087.011 0 .032.01.061.027.03.017.05.035.062.052h1.335a.742.742 0 00.08-.008.868.868 0 01.132-.027c.047-.011.087-.02.123-.026a.397.397 0 01.079-.018h.589a.153.153 0 00.061-.026l.088-.07c.035-.03.064-.056.088-.08.023-.023.038-.035.044-.035a.266.266 0 01.097-.026.383.383 0 01.07-.009.22.22 0 00.053-.026.306.306 0 00.052-.08.984.984 0 00.141-.29c.03-.099.067-.198.114-.298a.448.448 0 00.088-.105.804.804 0 00.062-.115.192.192 0 00.052-.026l.088-.07.08-.08a.438.438 0 00.043-.061.387.387 0 01.035-.07l.07-.106a5.603 5.603 0 01.106-.176c0-.005.009-.017.027-.035a.137.137 0 00.035-.026c0-.012.003-.018.009-.018h.017c.088 0 .14.035.158.106a.763.763 0 01.027.202v.184c0 .03.003.1.009.211.005.112.008.232.008.36a60.239 60.239 0 00.027.554v.027a.95.95 0 01-.044.264c-.03.093-.07.184-.123.272a.786.786 0 01-.194.22.393.393 0 01-.228.096 3.93 3.93 0 00-.229-.017l-.343-.018-.351-.017a1.382 1.382 0 01-.237-.027h-.317a.932.932 0 01-.202.035l-.343.018-.342.018-.194.008h-3.33a.872.872 0 01-.422.044c0 .012-.021.018-.062.018a.68.68 0 01-.114-.009.527.527 0 00-.07-.009.56.56 0 01-.141.062.575.575 0 01-.15.035c-.03 0-.079-.006-.15-.018a3.445 3.445 0 01-.21-.044 2.382 2.382 0 01-.22-.043 1.1 1.1 0 01-.158-.036zm11.619-3.48c0 .082.038.14.114.176a.507.507 0 00.211.052h.466c.064 0 .129.003.193.01.065.005.13.008.194.008.152 0 .284-.023.395-.07.111-.053.167-.167.167-.343v-.15a4.448 4.448 0 00-.237-.8c-.106-.269-.205-.53-.299-.782a.763.763 0 00-.053-.131.524.524 0 00-.07-.141.474.474 0 00-.097-.114.175.175 0 00-.114-.044.218.218 0 00-.184.097c-.041.064-.077.14-.106.228a3.74 3.74 0 00-.062.272 1.033 1.033 0 01-.061.211l-.097.282-.131.43c-.047.147-.094.287-.141.422-.041.135-.07.229-.088.282v.105zm-2.048 3.436h-.044a.518.518 0 00-.088.018c-.047.006-.1.015-.158.026a14.864 14.864 0 00-.255.027h-.052a.109.109 0 01-.088-.044.312.312 0 01-.053-.097.417.417 0 01-.018-.114.76.76 0 01-.009-.079v-.027c0-.105.036-.175.106-.211a7.43 7.43 0 01.22-.096.377.377 0 00.088-.027c.046-.023.096-.046.149-.07.059-.023.111-.044.158-.061a.41.41 0 00.088-.053.867.867 0 01.053-.044l.097-.097c.035-.035.067-.07.096-.105l.088-.088a.447.447 0 01.026-.044c.024-.035.036-.062.036-.08 0-.01.005-.046.017-.105a.317.317 0 01.044-.105c.158-.317.317-.636.475-.958.158-.328.307-.656.448-.984a.498.498 0 00.07-.15 3.98 3.98 0 00.07-.184 2.22 2.22 0 00.044-.106l.07-.193c.024-.07.045-.135.062-.194a.49.49 0 00.035-.105 1.79 1.79 0 01.053-.123 3.45 3.45 0 00.106-.211c.04-.076.076-.15.105-.22.035-.07.059-.114.07-.132.047-.105.091-.199.132-.28a2.26 2.26 0 00.132-.308c.024-.047.053-.1.088-.159.041-.058.08-.12.114-.184.035-.07.065-.138.088-.203a.445.445 0 00.044-.184v-.123a.416.416 0 00-.026-.114 1.3 1.3 0 01-.018-.097c0-.041.024-.094.07-.158a.652.652 0 01.106-.123c.012-.006.038-.018.08-.035.046-.018.093-.038.14-.062a155.148 155.148 0 00.193-.097 21.845 21.845 0 01.185-.184c.047-.047.088-.091.123-.132.04-.047.07-.08.088-.097a.379.379 0 00.035-.053.542.542 0 01.061-.096.382.382 0 01.08-.088c.029-.03.06-.041.096-.035.059.017.108.07.15.158.046.088.084.185.114.29.035.1.064.2.088.299.023.094.044.158.061.193l.027.123c.017.053.032.106.043.158a3.372 3.372 0 01.062.211 5.465 5.465 0 01.061.334 4.555 4.555 0 01.062.317c.006.017.02.073.044.167.03.094.062.202.097.325l.105.37c.035.116.065.21.088.28.047.159.105.317.176.475a2.416 2.416 0 01.21.791c.012.076.042.17.089.281l.035.08c.023.034.047.076.07.122a1.217 1.217 0 01.097.211c0 .012.003.033.008.062.006.03.012.064.018.105a.7.7 0 01.026.106.24.24 0 00.018.061c0 .006.006.027.018.062.011.03.026.064.044.105.017.035.032.07.044.106.017.03.029.044.035.044.029.152.067.316.114.492s.12.331.22.466c.047.07.131.129.255.175l.386.141c.135.047.252.1.352.158.1.059.15.135.15.229a.34.34 0 01-.08.237.458.458 0 01-.184.123.839.839 0 01-.255.053 4.142 4.142 0 01-.264.009h-.36c-.094 0-.258-.003-.492-.009l-.756-.018c-.264-.011-.516-.02-.756-.026a11.262 11.262 0 00-.492-.018c-.065-.023-.103-.049-.115-.079a.493.493 0 01-.017-.149v-.062a.08.08 0 01.009-.035.405.405 0 01.22-.22 1.69 1.69 0 01.29-.096c.105-.024.207-.05.307-.08a.472.472 0 00.246-.21l.018-.062-.018-.061a1.797 1.797 0 00-.044-.22 4.794 4.794 0 00-.062-.281 4.189 4.189 0 00-.087-.378.415.415 0 01-.053-.088l-.08-.158a1.45 1.45 0 00-.078-.167.97.97 0 00-.062-.132.377.377 0 00-.272-.176 1.612 1.612 0 00-.334-.035h-.176c-.211 0-.41.015-.598.044-.181.03-.375.044-.58.044a.862.862 0 01-.123-.009.864.864 0 00-.123-.009c-.04.041-.061.074-.061.097-.012.006-.027.03-.044.07a3.64 3.64 0 01-.044.123 1.02 1.02 0 01-.044.123.374.374 0 00-.018.062c0 .012-.02.047-.061.105a.388.388 0 01-.08.106c-.07.146-.11.299-.123.457-.011.152-.017.31-.017.474 0 .094.03.165.088.211a.69.69 0 00.22.097c.087.024.181.044.28.062.1.011.194.032.282.061a.531.531 0 01.22.114c.058.053.088.129.088.229 0 .193-.091.313-.273.36-.023 0-.067-.003-.132-.009l-.184-.017a20.361 20.361 0 01-.185-.018 1.02 1.02 0 01-.123-.017h-.87a17.61 17.61 0 00-.396-.027 6.845 6.845 0 00-.254-.026 1.356 1.356 0 00-.14-.018h-.045zm8.947.044a.859.859 0 00-.105.018.586.586 0 01-.088.026h-.035c-.076 0-.152-.003-.229-.008a.686.686 0 01-.193-.044.335.335 0 01-.132-.106.315.315 0 01-.053-.193v-.132c.006-.059.077-.1.211-.123.141-.03.296-.047.466-.053.17-.012.331-.02.484-.026.152-.012.243-.035.272-.07a1.844 1.844 0 01.035-.141.144.144 0 00.009-.044c0-.023.003-.059.009-.106a1.47 1.47 0 00.026-.158 2.195 2.195 0 00.035-.255 109.15 109.15 0 00.053-1.644v-.157a3.686 3.686 0 000-.519v-.176l.044-.114.009-.176c.006-.117.012-.255.017-.413.012-.158.02-.32.027-.483a5.9 5.9 0 00.017-.405v-1.221a.482.482 0 00-.017-.106 59.946 59.946 0 00-.018-.14.65.65 0 00-.026-.132.74.74 0 01-.009-.08.29.29 0 00-.176-.184.995.995 0 00-.299-.088 2.312 2.312 0 00-.36-.026 2.947 2.947 0 01-.343-.035.773.773 0 01-.263-.088c-.065-.047-.097-.117-.097-.211 0-.053.017-.1.053-.14a.614.614 0 01.123-.124.526.526 0 01.15-.079.417.417 0 01.148-.035c.082 0 .182.012.3.035.117.024.207.03.272.018a15.51 15.51 0 01.563-.053 72.242 72.242 0 00.536.026c.122.006.237.015.342.027.106.006.173.011.202.017h.185a.321.321 0 01.079-.017.913.913 0 01.123-.027c.047-.006.088-.011.123-.017a.968.968 0 01.07-.009h.44a.668.668 0 00.061-.009l.106-.017c.04-.006.076-.012.105-.018a.683.683 0 01.062-.009h.061a.077.077 0 01.035-.008c.07 0 .141.002.212.008.07.006.134.02.193.044.058.018.105.05.14.097a.284.284 0 01.062.193.28.28 0 01-.018.08.202.202 0 00-.017.06c-.047.03-.12.074-.22.133a.908.908 0 01-.246.096 1.48 1.48 0 00-.158.018 4.411 4.411 0 00-.246.026 2.91 2.91 0 00-.246.027 2.678 2.678 0 01-.141.008.206.206 0 00-.123.062.24.24 0 00-.062.114 6.093 6.093 0 00-.105.782c-.012.258-.018.522-.018.791v1.126l-.017.105a3.957 3.957 0 01-.027.202 2.1 2.1 0 01-.026.202 1.829 1.829 0 00-.009.123v1.846c0 .018-.003.056-.008.114a20.778 20.778 0 00-.036.36 1.375 1.375 0 00-.008.097v.124c0 .011.008.043.026.096a.377.377 0 01.026.088.153.153 0 01-.026.062c-.018.023-.026.043-.026.061a.167.167 0 00-.01.053.097.097 0 00-.008.044v.035c0 .111.032.217.097.316.07.094.158.141.263.141h.053c.17-.029.346-.056.527-.08.188-.029.367-.043.537-.043h1.485a15.19 15.19 0 00.422-.044.245.245 0 00.07-.027.517.517 0 00.07-.052l.115-.115c.047-.046.088-.09.123-.131.04-.041.07-.074.088-.097a1.1 1.1 0 01.053-.123.764.764 0 01.035-.08.205.205 0 01.026-.043c0-.006.009-.015.026-.026l.07-.053.062-.044a.154.154 0 01.044-.018l.044-.044a.347.347 0 00.07-.096.464.464 0 00.053-.115.987.987 0 00.088-.105l.123-.158a6.513 6.513 0 00.202-.264.92.92 0 01.044-.053.256.256 0 01.088-.008c.094 0 .167.038.22.114.052.07.09.155.114.255.023.1.035.202.035.307.006.1.009.182.009.246v.229a.542.542 0 01-.009.105v.044a.49.49 0 01-.026.097.374.374 0 00-.027.088 4.135 4.135 0 00-.017.351.643.643 0 01-.044.247.339.339 0 01-.14.175.933.933 0 01-.326.123c-.053.006-.15.009-.29.009-.14.006-.293.009-.457.009h-1.644c-.152 0-.287-.003-.404-.009a.797.797 0 01-.184-.009c-.03 0-.088-.003-.176-.008-.082 0-.176-.003-.282-.009a4.968 4.968 0 01-.57-.035 3.024 3.024 0 00-.097-.018 2.981 2.981 0 01-.097-.018c-.03-.005-.047-.011-.053-.017h-.141a1.443 1.443 0 01-.175.017 35.076 35.076 0 01-.739.044h-.588a1.34 1.34 0 00-.124.018.938.938 0 01-.105.026.29.29 0 01-.15.035 1.165 1.165 0 01-.122.009.677.677 0 01-.106-.017 2.53 2.53 0 01-.176-.027 4.431 4.431 0 01-.167-.035 1.847 1.847 0 00-.088-.009zm9.3-6.96a1.05 1.05 0 00-.071-.264.444.444 0 00-.114-.167.668.668 0 00-.176-.123l-.264-.132a.806.806 0 00-.202-.062.516.516 0 01-.123-.044.403.403 0 01-.08-.166.839.839 0 01-.026-.168v-.07c.006-.04.021-.07.044-.088a.582.582 0 01.097-.026.82.82 0 00.123-.035l.194-.018a1.879 1.879 0 01.519.017c.105.013.242.033.412.062h.651c.1 0 .196-.003.29-.008l.28-.018a3.57 3.57 0 00.309-.035.435.435 0 00.105-.027.484.484 0 01.097-.026h.061c.135 0 .258.023.37.07.117.047.175.144.175.29a.27.27 0 01-.105.229c-.07.053-.156.1-.255.14-.094.041-.19.082-.29.123a.505.505 0 00-.22.15.728.728 0 00-.14.237 1.875 1.875 0 00-.088.29c-.018.1-.03.2-.036.3a4.412 4.412 0 00-.009.263c0 .093.012.17.036.228a.467.467 0 01.035.29c0 .03-.009.05-.026.062a8.192 8.192 0 00-.026.272c0 .059-.004.115-.01.167a1.185 1.185 0 00-.009.106v.773a.56.56 0 01-.035.15l-.035.14v.185c0 .012.003.04.009.088.012.047.02.096.026.15a1.603 1.603 0 01.035.237c.006.029.01.081.01.158l.017.228c.006.076.009.15.009.22.006.07.009.12.009.15.005.046.017.108.035.184.017.07.035.143.052.22l.07.22c.024.07.047.125.071.166.023.059.064.132.123.22.065.088.135.176.211.264.076.082.152.155.228.22a.63.63 0 00.229.122c.012 0 .038.012.08.036a.278.278 0 00.105.026c.04 0 .061.003.061.009.065.006.123.02.176.044.053.017.102.038.15.061.046.018.096.035.149.053a.553.553 0 00.175.026h.123a.344.344 0 01.062-.035l.105-.053a5.09 5.09 0 01.106-.044.362.362 0 01.062-.017h.14a7.57 7.57 0 01.185-.053c.047-.011.096-.02.15-.026l.122-.027a.962.962 0 00.422-.29c.129-.146.231-.278.308-.395a.574.574 0 00.026-.08.938.938 0 00.044-.122c.017-.047.032-.091.044-.132a.398.398 0 00.018-.08 3.05 3.05 0 00.158-.57c.035-.2.058-.402.07-.607.012-.21.02-.419.026-.624.006-.205.018-.404.035-.597 0-.006.004-.024.01-.053a.636.636 0 00.008-.106c.006-.04.012-.076.018-.105a.552.552 0 00.008-.07v-.765a9.994 9.994 0 01-.026-.255 13.831 13.831 0 00-.044-.396 36.16 36.16 0 00-.035-.395 6.888 6.888 0 01-.009-.272 8.512 8.512 0 00-.07-.168.572.572 0 00-.088-.166.498.498 0 00-.026-.088c-.012-.036-.024-.053-.035-.053-.041-.041-.08-.062-.115-.062a.33.33 0 00-.079.01.194.194 0 01-.061.008.175.175 0 01-.08-.018 3.372 3.372 0 01-.404-.105.723.723 0 01-.325-.255.886.886 0 00-.026-.061v-.08a.345.345 0 01.026-.08.552.552 0 01.343-.21 1.98 1.98 0 01.422-.044c.105 0 .21.006.316.018.105.006.208.009.308.009.047 0 .114-.01.202-.027a1.38 1.38 0 01.237-.026h.545c.053 0 .114-.003.185-.009a2.96 2.96 0 01.228-.009c.117 0 .232.01.343.027a.671.671 0 01.281.105c.012.018.018.05.018.097a1 1 0 01.008.088.39.39 0 01-.087.272.554.554 0 01-.211.14c-.082.03-.173.054-.273.071a1.258 1.258 0 00-.263.08.52.52 0 00-.229.193.512.512 0 00-.088.29c0 .093.009.175.026.246a.76.76 0 01.036.246v.15a.423.423 0 01-.035.114.908.908 0 00-.027.096v.73a7.073 7.073 0 00-.017.334c-.006.158-.015.328-.027.51l-.017.5c-.006.159-.012.27-.018.335a.704.704 0 00-.062.175c-.011.053-.02.109-.026.167l-.017.158a.58.58 0 01-.027.167c-.006.018-.014.05-.026.097a3.53 3.53 0 01-.044.14 5.825 5.825 0 01-.035.15.389.389 0 00-.018.08c-.011.011-.02.04-.026.087a8.827 8.827 0 00-.018.132.446.446 0 01-.017.123c-.006.035-.012.053-.018.053 0 .017-.02.058-.061.123a1.454 1.454 0 00-.132.22 4.17 4.17 0 01-.106.21 3.54 3.54 0 01-.175.335 2.05 2.05 0 01-.414.536c-.164.158-.34.319-.527.483l-.105.079a5.638 5.638 0 00-.15.097 4.64 4.64 0 01-.132.096.793.793 0 00-.07.044h-.255c-.111.012-.21.024-.299.036a3.521 3.521 0 01-.246.043 2.824 2.824 0 01-.255.044 2.227 2.227 0 01-.298.018h-.528a.832.832 0 00-.202-.062l-.21-.035a1.093 1.093 0 01-.194-.035.555.555 0 01-.185-.07.764.764 0 01-.114-.062 20.595 20.595 0 00-.202-.14 4.567 4.567 0 00-.211-.15 1.355 1.355 0 01-.158-.132l-.062-.043a1.05 1.05 0 00-.15-.194 4.27 4.27 0 00-.158-.167 4.504 4.504 0 01-.158-.167 1.134 1.134 0 01-.123-.22 3.767 3.767 0 01-.264-.905 6.827 6.827 0 01-.07-.967 8.922 8.922 0 01-.017-.29v-3.155c.006-.135.011-.237.017-.308zm13.64-.036a.19.19 0 00.096-.123.608.608 0 00.027-.175c0-.124-.047-.209-.14-.255a.963.963 0 00-.3-.115 9.87 9.87 0 01-.298-.088c-.088-.035-.132-.096-.132-.184 0-.03.012-.053.035-.07a.22.22 0 01.088-.053.8.8 0 01.105-.044c.041-.012.077-.024.106-.035a1.326 1.326 0 01.264-.053h1.546a.883.883 0 01.308-.08 2.56 2.56 0 01.51-.008c.07 0 .129.009.175.026.053.018.094.05.123.097.03.047.044.114.044.202 0 .123-.035.217-.105.281a.646.646 0 01-.246.15c-.1.03-.205.053-.316.07-.106.018-.2.038-.282.062-.263.093-.498.22-.703.378-.2.152-.39.34-.571.562a1.83 1.83 0 00-.097.114l-.158.176-.15.185a2.198 2.198 0 01-.096.105c-.024.03-.05.065-.08.106a.45.45 0 01-.105.105 1.34 1.34 0 00-.22.246c-.07.1-.128.197-.175.29-.024.041-.044.08-.062.115a.459.459 0 00-.017.14c0 .123.032.252.096.387.065.135.126.26.185.378.023.035.053.088.088.158l.105.194c.035.064.065.123.088.175l.053.097c.006.012.026.047.061.105.041.053.085.115.132.185.047.064.088.126.123.184l.08.115.21.395c.07.164.144.328.22.492.076.159.158.314.246.466.088.147.188.287.299.422.111.135.24.264.387.387.052.04.12.076.202.105.082.024.161.05.237.079.082.03.15.071.202.124.059.046.088.117.088.21 0 .118-.038.191-.114.22a.545.545 0 01-.246.053c-.053 0-.108-.003-.167-.009a1.261 1.261 0 00-.14-.009.585.585 0 01-.176.027l-.308.035a6.027 6.027 0 01-.475.035h-.044a1.002 1.002 0 01-.176-.035 1.773 1.773 0 00-.114-.035c-.035-.006-.055-.015-.061-.027a4.78 4.78 0 01-.185-.008 25.611 25.611 0 00-.29-.018c-.1 0-.193-.003-.281-.009a3.388 3.388 0 00-.167-.009.828.828 0 01-.29-.061v-.062c0-.093.02-.158.061-.193a.98.98 0 01.141-.088.62.62 0 00.14-.105c.047-.041.07-.115.07-.22a1.22 1.22 0 00-.052-.281 3.376 3.376 0 00-.15-.422 6.538 6.538 0 00-.201-.484 3.558 3.558 0 00-.229-.448 2.542 2.542 0 00-.22-.334c-.07-.088-.132-.132-.184-.132-.1 0-.182.03-.246.088a.717.717 0 00-.167.202 1.596 1.596 0 00-.123.246c-.036.088-.07.165-.106.229-.017.03-.061.1-.132.21-.07.106-.149.224-.237.353a16.34 16.34 0 01-.237.36 4.66 4.66 0 01-.132.202c-.012.006-.026.026-.044.061a.188.188 0 01-.035.062v.061c0 .083.035.141.105.176.07.035.153.068.246.097.094.023.188.056.282.097a.43.43 0 01.228.175c0 .077-.02.129-.061.159a.382.382 0 01-.132.052h-2.461c-.047 0-.076-.017-.088-.052a.717.717 0 01-.009-.088v-.071a.973.973 0 01.237-.202 3.342 3.342 0 01.58-.255c.1-.04.194-.09.282-.149l.14-.132.22-.22c.082-.076.158-.149.229-.22.076-.07.129-.12.158-.149.152-.175.281-.357.387-.545.11-.193.22-.39.325-.588a.481.481 0 01.079-.08.496.496 0 00.07-.079 4.955 4.955 0 00.264-.395v-.044a.704.704 0 00.009-.114.82.82 0 00.009-.115.72.72 0 00.008-.088.533.533 0 00-.008-.079.82.82 0 00-.01-.114.704.704 0 00-.008-.114v-.08a1.105 1.105 0 01-.37-.342 3.322 3.322 0 01-.228-.457.574.574 0 00-.052-.097c-.03-.047-.06-.093-.088-.14a1.67 1.67 0 00-.088-.141.524.524 0 00-.044-.08c-.024-.046-.059-.12-.106-.219-.04-.1-.076-.17-.105-.21-.012-.007-.024-.024-.035-.053l-.035-.106-.036-.105a.296.296 0 00-.017-.07l-.018-.018a.036.036 0 00-.026-.01.106.106 0 01-.018-.025.58.58 0 01-.061-.053 2.09 2.09 0 01-.282-.457 1.688 1.688 0 00-.263-.44 1.73 1.73 0 00-.237-.228 2.65 2.65 0 00-.255-.194 9.54 9.54 0 00-.255-.175 2.014 2.014 0 01-.255-.203.188.188 0 01-.088-.105 1.123 1.123 0 01-.009-.14c0-.065.015-.106.044-.124a.284.284 0 01.14-.026h.036l.035.009.088.017c.035.006.064.012.088.018.03.006.05.009.061.009h.044c.375 0 .744-.012 1.108-.035.369-.024.738-.036 1.107-.036a.68.68 0 01.308.053c.07.03.105.111.105.246 0 .117-.023.2-.07.246a.547.547 0 01-.158.097.689.689 0 00-.159.088c-.046.035-.07.105-.07.21 0 .048.018.11.053.185.035.07.064.12.088.15.017.03.056.102.114.22.065.11.132.234.202.369a48.274 48.274 0 01.334.571c.041.059.076.106.106.14a.168.168 0 00.123.053c.07 0 .15-.029.237-.087.094-.065.214-.153.36-.264a.798.798 0 00.176-.22 4.31 4.31 0 00.176-.316c.053-.112.1-.217.14-.317.047-.1.085-.17.115-.21zm11.144 6.979a.91.91 0 00-.105.009h-.132a.81.81 0 00-.114.008h-.053l-.21.079-1.082-.061h-2.303a1.157 1.157 0 00-.44-.079.944.944 0 00-.148.009.546.546 0 00-.141.052c-.059 0-.158-.003-.299-.008a9.704 9.704 0 00-.87 0 9.644 9.644 0 01-.273.008.913.913 0 00-.096.009.98.98 0 01-.14.009l-.142.018a.959.959 0 01-.079.008.19.19 0 01-.061.009.163.163 0 01-.053.009H58.5a.957.957 0 01-.36-.053c-.077-.029-.144-.123-.203-.281-.023 0-.035-.006-.035-.018-.005-.006-.005-.014 0-.026 0-.047.015-.097.044-.149a.806.806 0 01.123-.159.895.895 0 01.158-.114.327.327 0 01.168-.053h.834c.012 0 .05-.032.115-.096a2.15 2.15 0 01.158-.159.191.191 0 00.035-.07.265.265 0 00.026-.088 6.23 6.23 0 00.123-1.028c.012-.34.018-.694.018-1.064v-.193c.006-.105.009-.228.009-.369l.017-.44c.006-.158.01-.307.01-.448.005-.14.008-.26.008-.36a4.7 4.7 0 00.009-.211v-.475a36.3 36.3 0 00-.026-1.388 35.398 35.398 0 01-.027-1.363v-.061a43.98 43.98 0 00.044-.598c.006-.07.009-.114.009-.132a4.74 4.74 0 00.017-.272 121.83 121.83 0 00.044-1.116 1.07 1.07 0 01-.052-.273 3.819 3.819 0 00-.027-.281.973.973 0 00-.07-.264.525.525 0 00-.167-.21 4.284 4.284 0 00-.466-.026 90.567 90.567 0 01-.272-.019 1.675 1.675 0 01-.176-.017 9.825 9.825 0 01-.308-.044 1.578 1.578 0 01-.307-.097.74.74 0 01-.238-.184.477.477 0 01-.087-.3l.035-.017a.104.104 0 00.026-.017.036.036 0 01.026-.01 1.31 1.31 0 01.378-.157c.112-.03.255-.044.43-.044h.045a.346.346 0 00.123.079c.293.023.586.04.879.053.293.005.589.008.887.008.247 0 .487-.002.721-.008.235-.006.466-.01.695-.01h1.942c.023 0 .062-.002.114-.008a1.53 1.53 0 01.167-.009l.185-.017c.058-.006.102-.01.132-.01h.114c.017 0 .059.004.123.01l.21.017c.077 0 .147.003.212.009.07.006.114.009.132.009h1.045c.047.006.115.011.203.017l.272.018c.094.006.176.015.246.026.07.006.109.012.115.018a.978.978 0 01.202.097c.052.023.102.05.15.079a.839.839 0 01.122.079c.059.035.106.12.14.255a2.6 2.6 0 01.097.43c.024.159.041.314.053.466.018.153.032.27.044.352 0 .029.003.082.009.158.012.07.02.146.026.228l.018.238c.006.076.009.129.009.158v.483a.22.22 0 01-.115.106.61.61 0 01-.15.017h-.06a.502.502 0 01-.212-.246l-.052-.14a.485.485 0 00-.07-.15c0-.006-.012-.017-.036-.035a.666.666 0 00-.132-.132 27.598 27.598 0 00-.043-.044 4.652 4.652 0 01-.247-.395 2.26 2.26 0 00-.272-.422.277.277 0 00-.062-.062.322.322 0 01-.061-.079c-.006-.011-.026-.02-.062-.026a.192.192 0 01-.07-.035.619.619 0 01-.167-.158 1.84 1.84 0 00-.132-.167 1.254 1.254 0 00-.14-.167.608.608 0 00-.22-.132 7.56 7.56 0 01-.273-.009 8.258 8.258 0 00-.413-.026c-.146-.012-.287-.02-.422-.027-.128-.011-.22-.02-.272-.026h-.457l-.08-.009a.868.868 0 00-.14-.026 1.595 1.595 0 00-.15-.027.533.533 0 00-.087-.017h-.255c-.023 0-.076.006-.158.017a5.37 5.37 0 00-.255.027 3.433 3.433 0 00-.255.026 2.685 2.685 0 01-.14.009h-.52a.158.158 0 00-.078.026c-.03.012-.044.024-.044.035v1.09a2.282 2.282 0 01-.08.536 1.94 1.94 0 00-.07.519c0 .264.012.53.036.8.029.263.044.533.044.808 0 .188-.015.378-.044.572a4.973 4.973 0 00-.036.597v.062a.981.981 0 01.07.079c.03.03.056.044.08.044h.448a.771.771 0 00.08-.009.883.883 0 01.131-.026c.047-.012.088-.02.123-.027a.52.52 0 01.07-.017h.783c.04 0 .114-.003.22-.009a6.31 6.31 0 01.342-.009l.343-.017c.105-.006.179-.01.22-.01a.666.666 0 00.193-.333c.041-.153.082-.278.123-.378a.717.717 0 00.018-.123l.035-.22a7.92 7.92 0 01.035-.21.423.423 0 01.035-.133c0-.006.006-.02.018-.044a1.184 1.184 0 00.097-.158.517.517 0 01.035-.044c.023-.076.038-.158.043-.246a.949.949 0 01.044-.237.397.397 0 01.115-.185c.052-.047.137-.07.254-.07.13 0 .214.03.255.088.041.058.062.155.062.29a.467.467 0 01-.009.105 3.355 3.355 0 00-.044.167.324.324 0 00-.009.08c0 .046.003.09.01.131a.538.538 0 01.008.08 2.488 2.488 0 00-.018.22c-.005.11-.014.24-.026.386-.012.146-.023.305-.035.475l-.035.474c-.012.147-.024.275-.035.387a3.131 3.131 0 01-.018.228l.009.167c.006.094.009.19.009.29 0 .047-.006.1-.018.159a1.27 1.27 0 01-.026.105l-.018.044a1.35 1.35 0 01-.026.105.702.702 0 01-.027.106.366.366 0 00-.008.061c0 .018.002.059.008.123l.018.211a2.715 2.715 0 01.035.317v.105a.926.926 0 01.009.132v.123a.72.72 0 01.009.097.991.991 0 01-.159.545c-.005.03-.035.061-.088.096a.274.274 0 01-.087.044.343.343 0 01-.097-.044.345.345 0 01-.105-.096.66.66 0 01-.212-.343 2.9 2.9 0 01-.07-.475 8.073 8.073 0 01-.017-.536c0-.181-.012-.348-.035-.5a1.05 1.05 0 00-.115-.396.381.381 0 00-.281-.194.992.992 0 01-.22.018h-.677a.805.805 0 01-.21-.018c-.03 0-.077-.002-.141-.008a2.254 2.254 0 00-.202-.01c-.065-.005-.13-.01-.194-.017a1.464 1.464 0 00-.123-.008c-.005-.018-.029-.039-.07-.062a.239.239 0 00-.079-.035h-.088a.912.912 0 00-.44.114.46.46 0 00-.245.343c-.006.04-.021.123-.044.246a24.01 24.01 0 01-.062.387c-.017.14-.038.278-.062.413a8.503 8.503 0 00-.035.29v.113c0 .047.003.123.01.228a48.864 48.864 0 01.034.686c.012.106.018.179.018.22.03.047.047.082.053.105.005.024.008.05.008.08 0 .228-.011.45-.035.667a6.368 6.368 0 00-.035.686v.15c.006.076.009.128.009.157.006.012.02.033.044.062.023.023.047.05.07.08l.088.07c.03.023.05.038.062.043.005.012.032.02.079.027l.175.017a.94.94 0 01.185.018c.065.006.114.012.15.017a184.941 184.941 0 001.468.044h.368c.07.03.141.05.211.062.077.012.15.017.22.017h.642a.663.663 0 00.061-.008.648.648 0 01.114-.027c.047-.011.088-.02.123-.026a.368.368 0 01.062-.018h1.67a.51.51 0 00.184-.096c.06-.053.115-.109.168-.167a2.027 2.027 0 00.246-.378.487.487 0 00.07-.123 2.51 2.51 0 00.097-.202 44.66 44.66 0 00.149-.326 2.34 2.34 0 01.08-.105c.04-.053.06-.085.06-.097a1.054 1.054 0 00.062-.193.91.91 0 00.044-.053l.088-.088a1.1 1.1 0 00.22-.316.966.966 0 00.052-.123l.036-.08a.451.451 0 01.096-.105.526.526 0 00.097-.088.111.111 0 01.044-.026.285.285 0 00.044-.035.22.22 0 01.053-.027.5.5 0 01.105.088l.106.106v.044c0 .07-.012.137-.036.202a.84.84 0 000 .413.566.566 0 01.035.211v.07c0 .018-.011.05-.035.097a.338.338 0 00-.026.105v1.029l-.026.272a1.383 1.383 0 01-.07.308.745.745 0 01-.15.246.33.33 0 01-.255.105h-.044a.736.736 0 00-.088-.017l-.123-.018-.114-.017a.428.428 0 00-.053-.009l-.053-.035c-.035-.024-.052-.038-.052-.044h-.097a1.8 1.8 0 01-.58.105 4.99 4.99 0 00-.571.035.915.915 0 00-.097.009 6.37 6.37 0 01-.158.018 3.415 3.415 0 00-.238.061h-.043a.975.975 0 01-.3-.044.982.982 0 00-.307-.044h-.097a1.586 1.586 0 00-.167-.008h-.184a1.503 1.503 0 00-.15-.009z" fill="#151618"/></svg>