<svg width="31" height="10" fill="none" xmlns="http://www.w3.org/2000/svg"><path d="M16.032 3.197c-.017 1.393 1.243 2.17 2.193 2.632.975.475 1.303.779 1.3 1.203-.008.649-.78.935-1.5.946-1.259.02-1.99-.339-2.572-.61l-.454 2.119c.584.268 1.665.503 2.785.513 2.631 0 4.352-1.297 4.361-3.309.01-2.552-3.534-2.693-3.51-3.834.009-.346.34-.716 1.063-.81.359-.047 1.348-.083 2.47.433l.44-2.05A6.72 6.72 0 0020.264 0c-2.476 0-4.217 1.315-4.232 3.197zM26.84.177c-.48 0-.885.28-1.066.71l-3.758 8.962h2.629l.523-1.444h3.212l.304 1.444H31L28.978.177H26.84zm.368 2.613l.758 3.632h-2.077l1.319-3.632zM12.845.177l-2.072 9.672h2.505L15.35.176h-2.504zm-3.706 0L6.532 6.76 5.477 1.162C5.353.537 4.865.177 4.322.177H.06L0 .457c.875.19 1.87.496 2.472.823.368.2.473.375.594.85l1.998 7.72h2.647L11.77.176H9.14z" fill="url(#paint0_linear_131_388)"/><defs><linearGradient id="paint0_linear_131_388" x1="1425.19" y1="30.06" x2="1454.11" y2="-996.956" gradientUnits="userSpaceOnUse"><stop stop-color="#222357"/><stop offset="1" stop-color="#254AA5"/></linearGradient></defs></svg>