<svg width="60" height="60" fill="none" xmlns="http://www.w3.org/2000/svg"><path d="M50.886 16.485c.002 1.52-.21 3.032-.629 4.495h4.922c2.664 0 4.821 2.128 4.821 4.754v14.728a19.29 19.29 0 01-3.017 10.35A19.66 19.66 0 0148.852 58a19.983 19.983 0 01-10.759 1.827 19.893 19.893 0 01-10.098-4.091l-3.6 3.549a2.278 2.278 0 01-1.627.715 2.304 2.304 0 01-1.651-.658 2.246 2.246 0 01-.667-1.63 2.223 2.223 0 01.725-1.605l3.597-3.551a19.403 19.403 0 01-2.899-4.96 18.47 18.47 0 01-8.009-.16 18.326 18.326 0 01-7.166-3.532 18.021 18.021 0 01-4.94-6.222A17.783 17.783 0 010 29.972V16.526c0-2.505 2.06-4.537 4.6-4.537h13.497A16.483 16.483 0 0124.1 3.334 16.865 16.865 0 0134.177 0h12.334c2.416 0 4.375 1.933 4.375 4.316v12.169zM22.7 12.535a18.365 18.365 0 016.91 3.389 18.074 18.074 0 014.874 5.902 19.99 19.99 0 015.77-.846h5.194a11.85 11.85 0 00.881-4.495V4.495H34.177A12.27 12.27 0 0027.14 6.71a12.012 12.012 0 00-4.44 5.824zm8.546 39.994a15.366 15.366 0 0015.86 1.308 15.113 15.113 0 006.086-5.524 14.836 14.836 0 002.251-7.85v-14.73a.254.254 0 00-.076-.181.26.26 0 00-.185-.076H40.253c-2.81 0-5.564.769-7.957 2.221a15.065 15.065 0 00-5.6 6.005 14.814 14.814 0 001.326 15.647l12.9-12.723a2.279 2.279 0 011.626-.715 2.305 2.305 0 011.652.658 2.245 2.245 0 01.667 1.629 2.223 2.223 0 01-.725 1.605L31.246 52.529zm-10.74-12.067c0-1.774.243-3.495.693-5.128l-8.379-8.27a2.248 2.248 0 01-.725-1.604 2.221 2.221 0 01.667-1.63 2.282 2.282 0 011.652-.657 2.305 2.305 0 011.627.715l7.041 6.944a19.709 19.709 0 017.216-7.2 13.566 13.566 0 00-5.03-5.224 13.81 13.81 0 00-7.04-1.923H4.584l-.015.012a.064.064 0 00-.009.015l-.003.014v13.446c0 1.979.44 3.933 1.292 5.724A13.512 13.512 0 009.48 40.34a13.738 13.738 0 005.286 2.683c1.94.5 3.968.574 5.94.216-.133-.92-.2-1.847-.2-2.776z" fill="#754E29"/></svg>