<svg width="22" height="18" fill="none" xmlns="http://www.w3.org/2000/svg"><path fill-rule="evenodd" clip-rule="evenodd" d="M18.783 1.203a4.88 4.88 0 00.79-.24c.28-.115.51-.253.876-.486a1.029 1.029 0 011.025-.044.96.96 0 01.526.849c0 1.042-.135 1.897-.447 2.648a5.235 5.235 0 01-1.071 1.614c-.186 3.243-1.16 5.79-2.648 7.72-1.543 2-3.595 3.28-5.759 3.998-2.157.715-4.436.875-6.478.633-2.029-.241-3.904-.889-5.21-1.869a.943.943 0 01-.307-1.138c.177-.403.613-.64 1.062-.578 1.285.177 2.523-.105 3.541-.508a6.381 6.381 0 01-.565-.336c-.927-.62-1.676-1.46-2.012-2.11a.934.934 0 01-.004-.854.974.974 0 01.3-.349C1.046 9.075.5 7.584.5 6.586a.95.95 0 01.385-.76c.102-.077.217-.133.338-.167a6.896 6.896 0 01-.24-.855C.717 3.563.741 2.162 1.03 1.048a.988.988 0 01.83-.721A1.01 1.01 0 012.865.8c1.079 1.8 3.066 2.902 4.916 3.554.87.307 1.675.502 2.279.622.13-1.177.47-2.148.994-2.919A4.58 4.58 0 0113.74.17c1.783-.463 3.76.064 5.043 1.033zm-9.035 5.68a18.866 18.866 0 01-2.654-.718c-1.357-.478-2.933-1.224-4.253-2.38.023.213.057.424.1.629.222 1.033.633 1.612 1.006 1.791a.95.95 0 01.49 1.198c-.239.624-.869.675-1.441.537.46.666 1.288 1.33 2.668 1.552.477.076.828.47.836.936a.973.973 0 01-.804.96l-.87.169c.133.111.277.22.43.323.698.466 1.397.666 2.002.52.452-.108.923.099 1.134.5a.941.941 0 01-.252 1.177c-.644.517-1.396.932-2.15 1.276-.353.162-.749.321-1.178.461.33.068.674.124 1.029.166 1.77.21 3.741.069 5.584-.542 1.836-.609 3.534-1.679 4.804-3.325 1.268-1.644 2.153-3.92 2.272-7.01a.948.948 0 01.292-.646c.45-.433.821-.93 1.004-1.522-.32.096-.68.18-1.11.259-.325.06-.66-.04-.894-.266-.765-.737-2.276-1.222-3.533-.896a2.584 2.584 0 00-1.533 1.081c-.412.608-.727 1.554-.727 2.99a.95.95 0 01-.33.716c-.498.434-1.336.178-1.921.064z" fill="#0F0F0F"/></svg>