<svg width="24" height="18" fill="none" xmlns="http://www.w3.org/2000/svg"><g fill-rule="evenodd" clip-rule="evenodd" fill="#0F0F0F"><path d="M9.496 4.132A1 1 0 008 5v8a1 1 0 001.496.868l7-4a1 1 0 000-1.736l-7-4zM13.984 9L10 11.277V6.723L13.984 9z"/><path d="M0 9c0-3.75 0-5.625.955-6.939A5 5 0 012.06.955C3.375 0 5.251 0 9 0h6c3.75 0 5.625 0 6.939.955a5 5 0 011.106 1.106C24 3.375 24 5.251 24 9c0 3.75 0 5.625-.955 6.939a5 5 0 01-1.106 1.106C20.625 18 18.749 18 15 18H9c-3.75 0-5.625 0-6.939-.955A5 5 0 01.955 15.94C0 14.625 0 12.749 0 9zm9-7h6c1.92 0 3.198.003 4.167.108.932.1 1.337.276 1.596.465.255.185.479.409.664.664.189.259.364.664.465 1.596C21.997 5.802 22 7.08 22 9s-.003 3.198-.108 4.167c-.1.932-.276 1.337-.465 1.596a2.988 2.988 0 01-.664.664c-.259.189-.664.364-1.596.465-.969.105-2.248.108-4.167.108H9c-1.92 0-3.198-.003-4.167-.108-.932-.1-1.337-.276-1.596-.465a3.003 3.003 0 01-.664-.664c-.189-.259-.364-.664-.465-1.596C2.003 12.198 2 10.92 2 9s.003-3.198.108-4.167c.1-.932.276-1.337.465-1.596a3 3 0 01.664-.664c.259-.189.664-.364 1.596-.465C5.802 2.003 7.08 2 9 2z"/></g></svg>